<?xml version="1.0" standalone="no"?>
<!DOCTYPE svg PUBLIC "-//W3C//DTD SVG 20010904//EN"
 "http://www.w3.org/TR/2001/REC-SVG-20010904/DTD/svg10.dtd">
<svg version="1.0" xmlns="http://www.w3.org/2000/svg"
 width="1280.000000pt" height="1195.000000pt" viewBox="0 0 1280.000000 1195.000000"
 preserveAspectRatio="xMidYMid meet">
<metadata>
Created by potrace 1.15, written by Peter Selinger 2001-2017
</metadata>
<g transform="translate(0.000000,1195.000000) scale(0.100000,-0.100000)"
fill="#000000" stroke="none">
<path d="M4960 11779 c-76 -8 -113 -30 -197 -114 -78 -79 -102 -118 -114 -180
-4 -22 -15 -65 -24 -95 -27 -90 0 -174 91 -290 50 -64 166 -156 221 -176 21
-7 68 -13 106 -14 l67 0 0 -67 c0 -182 -108 -818 -171 -1006 -41 -124 -93
-233 -117 -246 -29 -16 -210 -13 -326 4 -124 19 -302 78 -437 145 -57 29 -106
54 -108 56 -3 2 7 17 22 32 37 39 65 108 69 172 2 30 6 57 9 60 4 3 -5 34 -19
69 -31 78 -84 133 -155 159 -92 34 -125 36 -212 8 -168 -53 -245 -128 -253
-246 -5 -71 9 -118 59 -191 72 -107 150 -147 265 -135 l64 7 -10 -27 c-6 -14
-24 -83 -40 -152 -79 -330 -185 -544 -297 -597 -32 -15 -55 -17 -168 -12 -150
7 -198 19 -347 89 l-108 51 30 34 c60 67 97 174 87 248 -19 134 -181 290 -315
302 -101 10 -234 -73 -288 -178 -55 -109 -54 -244 3 -330 27 -42 113 -106 168
-126 45 -17 114 -22 169 -14 46 8 49 7 63 -18 123 -225 330 -585 418 -726
l111 -179 -37 -36 c-112 -107 -46 -313 119 -371 18 -6 36 -9 39 -5 3 3 32 -49
64 -115 56 -114 136 -245 195 -316 20 -25 24 -36 16 -46 -6 -7 -7 -18 -3 -25
5 -8 -1 -31 -12 -54 -30 -60 -34 -135 -9 -189 25 -56 114 -159 158 -182 l34
-17 1 -148 c0 -81 4 -185 8 -230 l6 -84 -31 5 c-67 11 -196 50 -210 64 -20 21
-19 292 2 388 29 132 33 178 18 202 -19 31 -103 67 -234 102 -481 126 -1188
99 -1781 -68 -221 -63 -340 -109 -559 -217 -217 -106 -313 -169 -414 -274
l-80 -81 33 -67 c18 -37 55 -104 82 -149 66 -109 134 -254 154 -328 20 -75 29
-245 18 -350 l-8 -79 -140 -33 c-142 -33 -407 -71 -525 -75 -57 -3 -65 -5 -65
-23 0 -13 15 -27 45 -43 25 -14 97 -53 160 -87 63 -35 178 -91 255 -125 77
-33 153 -66 168 -73 l29 -13 -96 -67 c-98 -70 -204 -124 -336 -171 -41 -15
-83 -35 -93 -44 -17 -15 -16 -17 27 -39 59 -30 109 -40 279 -59 389 -41 795
55 1102 262 73 49 185 152 185 171 0 3 -25 70 -55 149 -31 80 -65 181 -76 227
-11 45 -24 92 -29 104 -9 21 -4 23 89 52 289 90 773 192 1041 220 58 6 127 14
153 17 l48 5 -2 -236 c-1 -129 0 -237 2 -238 2 -2 29 -14 59 -27 88 -37 246
-45 565 -31 239 11 361 21 403 32 8 3 32 -37 64 -110 l51 -114 -41 -81 c-58
-113 -77 -167 -102 -286 -25 -116 -24 -202 5 -266 59 -131 72 -153 149 -229
45 -44 118 -104 162 -134 l81 -54 16 -121 c9 -67 23 -213 32 -326 8 -113 20
-268 26 -346 6 -78 9 -269 8 -425 -2 -239 0 -292 13 -331 9 -27 14 -48 12 -48
-3 0 -35 15 -72 34 -104 52 -189 83 -355 130 -294 85 -620 133 -1107 166 -223
14 -309 3 -425 -55 -50 -25 -95 -45 -100 -45 -6 0 -17 -4 -25 -10 -25 -15 21
-45 118 -75 134 -42 841 -307 888 -333 7 -4 -33 -6 -89 -4 -75 3 -145 -3 -267
-22 -262 -41 -374 -70 -418 -106 -26 -21 -48 -30 -77 -31 -22 -1 21 -9 95 -19
242 -33 653 -120 1045 -220 356 -92 312 -70 352 -174 50 -130 71 -220 94 -416
18 -148 20 -209 16 -397 -4 -123 -3 -223 1 -223 11 0 28 49 52 150 24 104 26
215 4 422 -19 190 -46 325 -86 437 -17 47 -39 111 -50 141 -11 30 -26 62 -34
71 -18 20 -18 29 1 29 8 0 15 -6 15 -13 0 -28 49 -57 181 -106 404 -151 1135
-309 1614 -351 340 -29 1019 -21 1305 16 332 42 910 153 1070 204 73 24 277
120 370 174 33 20 63 36 65 36 2 0 -11 -26 -30 -57 -62 -106 -133 -360 -154
-555 -6 -54 -11 -152 -11 -219 0 -134 14 -207 61 -323 16 -39 27 -71 26 -71
-14 -10 -406 -130 -473 -145 -438 -98 -846 -168 -1169 -200 -340 -33 -755 -19
-1335 45 -295 33 -436 57 -644 110 -231 58 -382 105 -564 175 -147 57 -175 63
-185 36 -11 -29 3 -38 205 -115 175 -67 488 -157 695 -201 398 -84 1259 -152
1638 -130 251 15 691 71 914 116 139 28 425 96 507 120 93 27 398 155 423 178
16 15 16 21 0 103 -46 232 -44 429 6 680 30 145 72 283 88 287 84 23 176 50
192 57 50 22 596 103 835 124 41 4 151 18 245 31 93 13 194 24 225 25 47 0 52
2 32 11 -22 11 -115 6 -642 -33 -218 -16 -747 -96 -791 -119 -10 -6 -19 -15
-19 -19 0 -5 -11 -11 -25 -13 -14 -3 -25 -2 -25 2 0 4 19 36 41 71 46 71 44
87 -12 102 l-34 10 30 7 c17 5 82 14 145 21 63 8 101 15 83 17 -17 2 -86 -4
-152 -12 -103 -14 -125 -14 -153 -2 l-33 13 45 6 c25 4 108 15 185 26 l140 20
-129 -5 c-70 -2 -162 -9 -203 -16 -57 -8 -84 -8 -115 1 -22 7 -38 14 -36 16 2
3 59 9 125 16 66 6 170 19 229 29 l109 18 -76 1 c-96 1 -275 -16 -358 -35 -62
-14 -126 -11 -137 7 -3 5 17 9 45 9 68 0 249 25 401 55 l125 25 -185 -5 c-176
-4 -375 -28 -442 -54 -18 -7 -38 -6 -69 4 -24 8 -42 14 -39 14 3 1 61 8 130
16 69 8 199 28 290 45 l165 29 -165 -5 c-190 -6 -290 -17 -412 -45 -80 -19
-142 -18 -122 1 5 4 65 16 134 25 69 9 225 36 347 60 121 24 244 47 272 51
107 14 37 13 -175 -2 -239 -16 -361 -33 -469 -63 -38 -11 -71 -18 -72 -17 -2
1 3 10 10 20 9 13 45 22 134 36 67 10 222 39 345 64 122 25 247 48 276 52 29
4 51 9 48 11 -2 2 -127 -5 -278 -17 -242 -19 -415 -43 -472 -66 -16 -6 -17 -5
-7 14 7 12 15 22 19 22 40 0 217 29 398 66 121 24 231 44 244 44 13 0 21 2 18
5 -5 5 -409 -20 -493 -31 -83 -11 -47 3 80 30 417 87 802 136 1170 146 160 5
346 11 415 15 l125 6 -150 -56 c-363 -135 -615 -255 -792 -377 -84 -58 -136
-122 -71 -87 15 8 31 8 57 1 20 -6 83 -16 141 -22 58 -6 164 -22 235 -36 332
-63 609 -106 631 -97 54 20 -521 158 -806 193 -52 6 -106 13 -118 16 -18 4 27
30 187 109 202 100 316 148 541 230 200 73 285 128 204 131 -16 1 -92 10 -169
20 -106 14 -208 18 -415 18 -243 1 -299 -3 -483 -27 -266 -35 -592 -90 -764
-128 -74 -17 -137 -29 -139 -27 -2 2 10 107 25 233 16 127 36 338 45 470 21
309 34 485 46 610 l8 100 44 35 c91 73 182 168 265 275 121 155 126 170 127
335 0 136 -18 235 -69 379 -8 24 -15 53 -15 65 0 11 23 71 52 133 38 82 55
110 64 102 6 -5 49 -16 95 -24 165 -29 533 -14 732 31 90 20 205 64 211 81 3
7 1 25 -4 40 -5 15 -13 98 -17 183 -8 161 -13 176 -53 150 -25 -16 -18 -167
13 -270 14 -47 24 -86 23 -88 -8 -8 -219 -43 -351 -58 -188 -22 -448 -22 -559
0 -43 9 -80 17 -82 18 -1 2 99 1 222 0 140 -3 255 1 307 8 45 7 138 15 207 20
129 7 180 21 180 49 0 10 -42 41 -112 80 -62 36 -151 90 -198 121 -47 32 -105
70 -130 85 -92 56 -123 108 -87 144 10 10 8 11 -7 5 -17 -7 -17 -6 0 27 10 19
19 39 20 44 1 6 10 33 18 60 54 168 76 608 41 785 -11 52 -20 99 -20 104 0 12
127 52 242 75 425 87 799 101 1167 46 200 -30 538 -116 731 -187 151 -55 391
-173 505 -249 95 -63 260 -211 260 -234 0 -7 -22 -59 -49 -116 -79 -168 -132
-348 -166 -559 -22 -135 -22 -390 -1 -475 l15 -60 -29 -27 c-38 -35 -57 -35
-275 -2 -206 32 -459 41 -503 18 -15 -7 -30 -14 -34 -14 -18 0 -6 63 26 131
18 41 44 102 56 137 13 34 26 62 29 62 4 0 45 -16 92 -35 l84 -34 -85 -2 -85
-2 115 -9 c80 -7 133 -17 175 -33 l60 -24 -125 6 c-69 3 -123 3 -120 0 3 -3
66 -11 140 -17 74 -7 149 -19 165 -26 l30 -14 -30 5 c-75 13 -218 20 -295 15
l-85 -6 55 -7 c30 -4 132 -14 225 -22 94 -9 183 -21 198 -27 l29 -11 -28 -12
c-27 -11 -26 -12 40 -29 62 -17 69 -17 84 -3 29 29 1 60 -117 131 -110 67
-165 92 -361 167 -361 139 -525 183 -1190 319 -532 108 -811 139 -887 97 -18
-9 -38 -27 -44 -39 -10 -19 -8 -25 12 -41 41 -32 181 -122 244 -156 l60 -33
-35 32 -35 31 43 -21 c23 -11 42 -19 42 -16 0 11 -161 112 -233 146 -45 22
-73 40 -61 40 11 0 82 -31 157 -70 75 -38 140 -70 144 -70 29 0 -179 116 -252
141 -24 8 -33 14 -23 17 9 2 71 -22 137 -52 66 -31 123 -56 128 -56 13 1 -66
48 -132 81 l-60 29 37 0 c20 0 73 -16 119 -35 90 -39 114 -41 45 -4 -25 13
-44 25 -42 26 1 2 42 -10 89 -26 90 -31 118 -33 47 -5 -23 9 -39 18 -37 20 7
7 253 -37 342 -61 50 -13 162 -38 250 -55 231 -45 503 -106 630 -141 103 -28
266 -79 273 -84 2 -1 -4 -20 -12 -41 -15 -38 -96 -298 -96 -308 0 -3 8 -2 17
1 16 6 16 5 0 -17 -40 -57 -5 -115 134 -220 105 -79 231 -139 400 -189 282
-85 415 -103 769 -104 57 0 107 5 125 13 17 7 36 12 43 11 6 -1 12 2 12 7 0
14 -114 117 -196 178 -39 29 -90 74 -113 101 -24 26 -62 64 -86 84 -43 36 -47
49 -16 49 38 1 190 74 294 143 129 86 168 121 189 174 l14 38 -72 -3 c-40 -2
-168 4 -286 14 -117 10 -237 18 -266 18 l-52 1 5 45 c43 335 110 581 216 797
l51 103 -22 35 c-32 53 -152 158 -270 237 -465 312 -1296 522 -1892 480 -265
-19 -624 -78 -740 -122 -29 -11 -69 -33 -89 -49 l-36 -30 18 -88 c10 -48 22
-147 25 -219 l7 -131 -33 -6 c-18 -4 -61 -7 -96 -7 l-64 0 7 43 c5 23 8 183 8
355 0 243 -3 314 -13 321 -7 4 -17 36 -23 72 -18 114 -98 327 -196 524 -98
195 -164 293 -286 421 l-58 62 20 33 c16 26 21 51 21 110 0 70 -4 84 -41 158
-41 82 -99 141 -138 141 -14 0 -19 20 -29 113 -17 165 -41 293 -67 371 l-24
69 33 41 c55 67 76 118 76 183 0 100 -69 220 -145 254 l-43 19 20 87 c40 183
74 464 101 837 l12 169 48 12 c142 36 240 180 241 355 1 76 -2 90 -28 138 -36
65 -144 168 -203 194 -141 62 -267 14 -371 -141 -57 -85 -77 -146 -68 -208 6
-46 42 -123 87 -190 16 -23 29 -45 29 -50 0 -9 95 -73 109 -73 29 0 16 -30
-47 -113 -105 -137 -225 -251 -308 -289 -65 -31 -75 -32 -184 -32 -105 0 -122
3 -195 32 -109 43 -217 106 -320 187 l-87 67 29 18 c16 10 59 46 95 81 95 92
105 134 62 270 -23 72 -33 90 -83 138 -39 39 -78 65 -126 86 -61 26 -81 30
-160 29 -135 -1 -218 -44 -268 -139 -17 -33 -21 -58 -22 -140 0 -117 21 -199
66 -249 34 -40 128 -91 198 -109 l51 -13 -79 -95 c-109 -130 -333 -346 -410
-396 -90 -58 -125 -63 -198 -24 -59 32 -302 227 -493 395 -118 104 -240 230
-374 384 l-89 103 62 59 c34 32 70 78 81 102 66 151 42 407 -48 507 -93 104
-253 166 -392 150z m271 -144 c24 -17 55 -53 73 -85 30 -54 31 -58 31 -185 0
-109 -4 -141 -23 -195 -29 -87 -71 -136 -125 -151 -23 -6 -58 -15 -78 -21 -24
-7 -47 -7 -75 1 -21 6 -52 11 -67 11 -49 0 -101 35 -146 100 -53 75 -75 138
-91 255 l-13 90 30 66 c55 119 120 150 315 146 123 -2 128 -3 169 -32z m3209
-317 c90 -47 147 -224 106 -333 -25 -63 -103 -139 -161 -155 -42 -12 -48 -11
-57 3 -5 11 -22 17 -42 17 -97 0 -196 152 -196 300 0 101 19 127 125 172 61
26 170 24 225 -4z m-1442 -175 c39 -24 55 -44 94 -118 43 -82 48 -96 48 -159
0 -83 -21 -124 -84 -161 -67 -39 -118 -42 -211 -10 -44 15 -94 36 -111 46 -40
24 -65 76 -71 150 -19 207 174 352 335 252z m-1727 -300 c244 -291 683 -680
887 -785 157 -81 143 -77 188 -63 132 39 389 291 539 529 62 97 77 99 167 20
189 -166 422 -275 626 -291 59 -5 89 -1 157 18 46 12 82 26 80 29 -2 4 25 28
60 54 73 53 166 155 250 271 47 65 57 74 52 50 -3 -16 -15 -109 -27 -205 l-22
-175 -42 -38 c-222 -206 -501 -308 -714 -263 -94 20 -238 88 -352 167 l-90 62
-117 -116 c-155 -152 -226 -212 -293 -245 -48 -24 -69 -27 -170 -30 -138 -4
-206 10 -370 74 -140 56 -236 110 -401 224 -69 49 -148 100 -176 113 l-50 26
-21 -47 c-12 -26 -44 -126 -71 -222 -105 -371 -173 -521 -289 -642 -60 -62
-163 -106 -275 -118 -88 -9 -349 4 -424 20 -114 25 -272 74 -314 98 -57 31
-80 25 -78 -20 2 -49 -35 -202 -71 -293 -85 -215 -232 -424 -337 -478 -17 -9
-75 -25 -130 -36 l-99 -21 -103 30 c-126 36 -185 64 -210 98 -22 32 -201 356
-201 365 0 3 42 -14 93 -38 139 -65 180 -76 325 -87 191 -15 226 -6 312 81
111 111 184 278 256 581 19 80 34 159 34 177 0 17 4 34 10 38 5 3 72 -26 148
-64 160 -80 313 -134 445 -157 116 -20 307 -16 353 9 64 33 152 178 212 348
29 83 91 369 112 519 30 209 50 392 50 453 0 37 4 67 9 67 5 0 42 -39 82 -87z
m-1420 -625 c119 -35 165 -192 93 -316 -45 -76 -167 -118 -272 -93 -129 31
-216 198 -149 287 33 45 93 95 145 121 51 26 102 26 183 1z m1651 -51 c21 -12
106 -68 189 -125 280 -190 522 -281 749 -282 156 0 248 41 380 170 70 69 173
195 183 223 2 7 15 2 34 -13 23 -18 71 -107 181 -330 150 -305 265 -550 260
-555 -18 -16 -92 -45 -97 -38 -4 4 -27 51 -51 103 -69 153 -348 713 -365 735
-14 18 -14 17 -1 -16 8 -19 75 -156 148 -305 73 -148 161 -329 195 -402 l63
-133 -65 -30 c-36 -16 -68 -29 -72 -29 -5 0 -23 35 -42 78 -47 107 -308 633
-326 656 -47 62 -6 -33 159 -363 102 -204 186 -374 186 -378 0 -7 -142 -76
-145 -70 0 1 -25 61 -55 132 -72 174 -157 355 -225 474 -93 167 -98 154 -8
-24 81 -160 276 -586 271 -590 -11 -9 -205 -102 -303 -145 -418 -182 -1120
-407 -1810 -579 -360 -89 -1076 -194 -1490 -217 l-100 -6 -122 198 c-67 109
-121 199 -120 201 2 1 48 -11 102 -27 118 -35 160 -36 279 -10 104 23 162 54
231 124 140 141 315 501 315 647 0 45 2 50 18 43 69 -30 325 -95 412 -104 153
-15 355 -13 425 5 81 21 173 65 217 103 43 38 124 155 165 237 74 147 183 506
183 602 0 35 3 63 8 63 4 0 24 -10 44 -23z m2703 -34 c-4 -32 -16 -116 -26
-188 -10 -71 -19 -169 -19 -218 l0 -87 -67 -44 c-38 -24 -83 -51 -100 -60
l-33 -16 -104 209 -105 209 57 16 c115 32 301 136 366 205 17 17 31 31 34 31
2 0 0 -26 -3 -57z m-887 -326 c56 -117 130 -279 166 -362 65 -150 65 -150 43
-162 -21 -12 -24 -7 -76 105 -30 64 -121 248 -201 408 l-146 291 57 -34 57
-34 100 -212z m-32 181 c46 -22 49 -27 120 -173 39 -82 104 -224 144 -314 69
-155 72 -165 55 -178 -30 -21 -39 -16 -59 35 -51 126 -193 430 -250 535 -35
64 -62 117 -60 117 2 0 25 -10 50 -22z m124 -49 c37 -11 39 -14 88 -143 28
-72 76 -196 107 -276 65 -171 63 -162 50 -166 -5 -2 -34 54 -64 124 -30 70
-93 205 -141 300 -47 94 -84 172 -81 172 2 0 21 -5 41 -11z m115 -41 c4 -13
33 -86 65 -163 92 -221 139 -345 131 -345 -4 0 -36 71 -71 158 -35 86 -87 205
-116 265 -47 94 -51 107 -35 107 12 0 22 -9 26 -22z m106 -100 c24 -68 45
-127 47 -133 1 -5 -27 46 -62 115 -36 69 -65 128 -65 133 -1 4 7 7 18 7 14 0
27 -25 62 -122z m20 89 c10 -36 3 -34 -17 4 -11 23 -12 30 -3 27 7 -2 16 -16
20 -31z m600 -325 c94 -116 114 -183 77 -264 -22 -48 -36 -61 -138 -131 -297
-205 -749 -441 -1230 -645 -350 -149 -483 -197 -862 -317 -401 -127 -497 -154
-823 -230 -384 -89 -850 -164 -1025 -165 -30 0 -73 -5 -95 -10 -98 -22 -484
-52 -636 -48 -153 3 -156 3 -192 31 -68 52 -95 142 -63 206 19 35 55 51 119
51 185 0 1046 113 1352 176 352 74 945 241 1412 399 358 120 552 197 823 325
107 51 236 110 285 132 50 22 99 48 110 58 11 9 43 25 70 35 58 21 135 62 293
157 62 38 111 64 107 59 -8 -14 207 111 263 153 26 19 58 46 71 60 14 14 27
26 30 26 3 0 27 -26 52 -58z m-5552 16 c60 -29 146 -118 167 -174 21 -56 15
-117 -21 -190 -45 -91 -138 -143 -235 -130 -58 8 -185 72 -217 111 -24 27 -25
35 -21 115 7 138 54 219 153 266 63 30 116 30 174 2z m5466 -563 c81 -47 139
-148 155 -268 10 -74 9 -98 -4 -160 -23 -102 -27 -106 -72 -82 -65 35 -122 94
-154 159 -55 112 -53 322 4 361 26 19 22 19 71 -10z m-312 -179 c18 -7 55 -38
83 -68 43 -45 54 -64 64 -113 11 -51 9 -70 -9 -156 -41 -192 -88 -257 -256
-349 -216 -119 -302 -125 -660 -47 -166 36 -257 46 -307 35 -28 -6 -47 -3 -90
16 -55 25 -53 34 8 39 16 1 32 7 36 12 8 12 296 14 403 3 54 -6 46 -3 -35 11
-140 25 -309 34 -394 22 -68 -10 -177 -56 -183 -77 -2 -6 9 -14 24 -17 15 -4
39 -9 53 -12 15 -3 11 1 -10 9 -19 8 -30 15 -25 16 43 7 64 5 104 -11 25 -10
42 -19 36 -20 -5 -1 -14 -2 -20 -3 -32 -5 -64 -22 -92 -49 -26 -24 -33 -39
-33 -69 0 -60 55 -100 159 -114 53 -7 183 16 231 41 16 8 32 15 36 15 3 0 4
-27 2 -60 -3 -48 -10 -67 -35 -97 -63 -79 -143 -112 -293 -120 -95 -5 -180 8
-180 27 0 6 6 10 13 10 6 0 23 9 37 20 39 30 47 24 14 -12 l-29 -32 40 30 c27
21 65 36 119 47 43 10 86 22 95 27 11 7 5 7 -19 2 -19 -4 -87 -7 -151 -7 -107
0 -121 2 -176 29 -58 27 -62 32 -92 100 -17 39 -31 80 -31 90 0 30 66 157 103
198 27 30 55 45 143 77 60 21 134 49 164 61 55 22 58 22 460 15 440 -8 484 -5
573 43 55 30 114 90 123 127 8 34 -3 90 -22 106 -13 11 -10 15 22 31 21 10 46
15 57 12 16 -5 17 -3 8 14 -16 30 -58 60 -101 73 -50 15 -111 5 -182 -29 -42
-21 -54 -24 -48 -12 13 24 27 34 120 84 95 51 98 52 143 32z m-165 -122 c-27
-13 -48 -27 -48 -30 0 -3 26 8 57 25 60 33 95 38 140 20 l28 -11 -40 -18 c-22
-10 -49 -19 -60 -19 -16 -1 -13 4 13 20 51 33 37 33 -25 -1 -32 -16 -65 -30
-73 -30 -8 0 -43 -13 -76 -29 -53 -25 -61 -27 -57 -11 7 28 65 78 108 94 65
24 85 18 33 -10z m172 -34 c-37 -21 -60 -25 -60 -12 0 10 48 30 75 31 14 0 10
-5 -15 -19z m604 -221 c83 -98 97 -207 36 -269 -17 -17 -30 -38 -30 -48 0 -17
-62 -59 -390 -264 -155 -97 -192 -119 -425 -248 -309 -172 -387 -206 -770
-342 -505 -178 -875 -274 -1393 -363 -291 -50 -370 -60 -582 -75 -80 -6 -237
-20 -350 -31 -113 -11 -298 -22 -411 -26 -199 -6 -208 -5 -241 15 -19 12 -38
19 -41 16 -17 -18 -120 68 -154 128 -25 45 -13 140 23 179 13 14 21 15 69 3
155 -36 685 -50 940 -26 361 35 871 133 1237 237 553 158 961 312 1536 578
291 136 522 285 749 486 51 44 99 81 107 81 8 0 18 5 21 10 9 14 37 -3 69 -41z
m143 -503 c57 -72 117 -157 133 -190 16 -34 45 -90 65 -125 l36 -64 -65 5
c-219 18 -375 170 -390 381 l-4 62 46 41 c37 33 50 39 61 31 8 -7 60 -70 118
-141z m-2471 80 c57 -26 82 -56 123 -148 53 -116 62 -228 25 -299 -20 -40
-102 -107 -143 -119 -50 -14 -52 -13 -126 16 -82 33 -120 76 -183 204 -38 77
-46 104 -45 142 5 116 39 164 144 203 83 31 140 31 205 1z m2184 -95 c0 -74
63 -214 129 -284 94 -103 295 -167 381 -122 28 14 28 14 39 -17 6 -17 9 -33 7
-36 -3 -2 -71 -5 -153 -6 l-148 -1 -85 43 c-47 24 -93 51 -104 60 -97 88 -160
310 -104 369 29 30 38 29 38 -6z m-2750 -1 c61 -16 116 -45 134 -72 9 -13 16
-43 16 -69 0 -26 5 -69 11 -96 11 -47 10 -50 -27 -113 -58 -100 -128 -164
-205 -189 -42 -13 -55 -20 -38 -20 43 -1 153 37 183 62 19 16 36 22 56 19 41
-6 27 -32 -19 -33 -23 -1 -28 -3 -13 -6 12 -2 22 -8 22 -13 0 -17 -47 -41 -66
-34 -15 5 -16 4 -4 -5 12 -8 8 -13 -20 -25 -47 -19 -180 -46 -229 -46 -65 0
-146 36 -185 81 -61 72 -58 76 55 81 89 4 107 9 173 42 78 38 107 71 121 133
8 41 -17 91 -56 107 l-29 12 35 39 c44 47 57 40 20 -12 l-28 -38 37 37 c20 21
36 42 36 47 0 13 -65 31 -110 31 -57 0 -164 -27 -218 -54 -63 -32 -179 -125
-257 -207 -62 -66 -48 -58 44 24 78 70 212 157 256 167 6 1 20 6 32 11 31 11
143 23 143 14 0 -12 -41 -65 -51 -65 -5 0 -3 14 6 30 21 41 12 38 -13 -4 -14
-24 -29 -35 -55 -40 -46 -9 -134 -68 -230 -154 -190 -172 -383 -301 -517 -346
-183 -61 -414 -86 -494 -52 -20 8 -66 36 -102 62 -114 81 -140 175 -80 291 23
47 120 148 162 171 16 8 165 33 194 32 3 0 -35 -20 -85 -43 -101 -49 -148 -93
-165 -158 -10 -35 -8 -46 12 -87 15 -32 24 -41 26 -29 2 10 13 17 25 17 12 1
40 7 61 15 37 13 41 13 67 -10 31 -25 106 -45 173 -45 61 0 183 33 255 70 68
34 185 139 260 234 27 34 72 81 100 105 51 42 56 44 279 96 125 30 234 52 242
50 8 -2 35 -9 60 -15z m2655 -230 c9 -25 27 -63 42 -84 16 -25 22 -44 17 -52
-5 -6 -31 -46 -59 -88 -40 -61 -57 -78 -87 -87 -54 -17 -106 -4 -145 38 -42
43 -49 75 -33 132 19 69 18 73 -21 95 l-37 21 142 96 141 95 12 -61 c6 -33 19
-80 28 -105z m-2754 93 c-16 -27 -38 -53 -44 -53 -4 0 3 16 14 35 12 19 25 35
30 35 6 0 6 -7 0 -17z m-956 -58 l30 -13 -45 -1 c-146 -3 -308 -94 -327 -183
-5 -24 -11 -28 -38 -28 -19 0 -40 -3 -49 -6 -9 -3 -16 -1 -16 5 0 6 18 14 40
17 22 4 43 11 46 16 4 7 -9 8 -36 3 -40 -7 -41 -6 -31 13 15 29 101 102 165
141 77 46 202 64 261 36z m1920 -1 c-22 -18 -25 -18 48 2 25 8 21 -11 -8 -30
-22 -15 -27 -15 -60 1 -41 19 -44 30 -12 36 46 9 53 7 32 -9z m1445 -89 c0
-13 -98 -51 -108 -41 -4 5 87 55 101 56 4 0 7 -7 7 -15z m-4307 -31 c142 -71
178 -118 181 -233 1 -60 -17 -132 -33 -131 -16 2 -242 400 -226 400 3 0 38
-16 78 -36z m4318 -35 c-25 -73 -8 -133 57 -202 41 -42 111 -68 157 -59 l29 5
-19 -29 c-11 -16 -38 -63 -61 -104 -68 -120 -76 -132 -127 -168 -77 -55 -165
-57 -227 -6 -65 56 -73 115 -23 174 28 34 65 39 101 14 22 -15 30 -44 13 -44
-16 0 -23 -40 -11 -55 15 -18 61 -20 78 -3 18 18 14 89 -7 124 -24 40 -95 69
-144 60 -64 -12 -128 -96 -129 -170 -3 -154 192 -255 342 -177 22 11 42 21 44
21 2 0 5 -30 8 -67 12 -167 143 -273 272 -219 49 20 102 71 126 122 22 44 22
46 5 90 -30 78 -93 98 -146 45 -35 -35 -38 -74 -8 -95 29 -20 49 -10 49 25 0
34 24 39 40 9 16 -30 5 -53 -45 -99 -38 -35 -51 -41 -88 -41 -88 0 -140 79
-141 214 -1 76 1 84 33 134 22 34 45 91 62 155 21 77 28 93 28 66 1 -57 38
-161 67 -192 14 -16 37 -32 51 -38 41 -15 111 -10 153 11 l40 20 6 -25 c3 -14
21 -38 40 -54 56 -50 144 -54 191 -9 26 24 30 18 9 -15 -24 -37 -56 -168 -56
-230 0 -66 16 -103 60 -140 70 -59 146 -53 205 15 61 72 68 148 17 189 -33 25
-60 21 -85 -12 -25 -35 -9 -74 29 -66 31 6 31 -9 -1 -56 -31 -45 -62 -54 -105
-32 -72 37 -72 104 1 338 l40 127 32 -22 c33 -24 101 -31 143 -15 19 7 22 3
28 -35 32 -216 34 -481 5 -708 -24 -192 -118 -647 -184 -887 -42 -153 -100
-323 -111 -323 -8 0 9 129 28 205 17 66 21 121 24 315 l3 235 -20 -130 c-10
-71 -41 -215 -67 -320 -42 -172 -47 -200 -46 -300 1 -84 7 -131 26 -197 14
-49 24 -88 22 -88 -1 0 -26 12 -55 27 -149 78 -330 -16 -429 -223 -80 -166
-55 -274 63 -274 51 0 74 33 111 156 37 124 54 159 97 209 58 65 170 78 226
26 43 -40 75 -264 54 -375 -12 -66 -38 -107 -154 -251 -89 -109 -201 -207
-283 -246 -58 -28 -186 -59 -244 -59 -15 0 -62 16 -103 34 -98 45 -202 66
-324 66 -133 0 -215 -14 -279 -45 -60 -29 -144 -106 -144 -131 0 -12 8 -8 32
15 17 17 57 40 87 52 68 25 159 44 168 35 4 -3 -10 -23 -29 -44 -39 -39 -82
-117 -93 -167 -5 -19 11 1 44 55 29 47 69 102 89 123 l37 39 95 -7 c52 -4 97
-8 101 -11 4 -2 -4 -39 -18 -81 -13 -43 -34 -136 -46 -208 -11 -71 -21 -131
-22 -133 -1 -1 -28 14 -61 33 -61 37 -112 55 -154 55 -36 0 -130 -59 -156 -97
l-21 -32 -24 25 c-72 77 -169 69 -249 -22 -30 -35 -33 -36 -43 -18 -23 41 -65
74 -95 74 -38 0 -111 -26 -135 -47 -18 -17 -20 -15 -54 25 -45 54 -113 94
-163 96 -34 0 -46 -6 -84 -43 l-44 -44 -33 37 c-83 95 -157 85 -224 -29 -14
-25 -27 -45 -29 -45 -1 0 -22 19 -46 41 -40 38 -46 41 -87 36 -50 -5 -75 -24
-110 -85 l-25 -42 -63 64 c-94 97 -149 98 -227 7 l-34 -40 -19 32 c-39 69 -97
136 -127 146 -17 6 -49 11 -70 11 -32 0 -47 -8 -88 -46 l-49 -45 -5 48 c-13
109 -58 319 -76 361 l-20 45 102 -7 c98 -7 104 -9 145 -42 23 -19 65 -72 92
-117 28 -45 55 -89 60 -97 15 -24 -17 107 -35 143 -9 18 -26 42 -37 55 -11 12
-17 22 -13 22 3 0 57 -23 118 -51 143 -65 158 -71 158 -59 0 14 -116 97 -185
132 -118 60 -159 70 -317 75 -134 5 -150 4 -190 -15 -82 -40 -130 -47 -205
-33 -86 17 -93 20 -93 37 0 17 -17 18 -22 2 -4 -10 -11 -10 -34 1 -16 8 -36
15 -45 16 -26 2 -188 103 -275 171 -84 65 -169 166 -180 213 -4 14 -11 32 -17
39 -19 24 12 269 52 420 14 51 49 72 118 72 63 0 117 -32 159 -92 25 -37 40
-80 64 -183 38 -160 56 -190 108 -181 64 10 112 76 112 154 0 101 -130 276
-248 334 -61 30 -74 33 -164 33 -54 0 -98 4 -98 9 0 5 17 41 38 80 73 134 86
177 78 262 l-7 75 42 -21 c25 -13 50 -19 65 -16 l24 6 -29 -45 c-15 -24 -34
-65 -41 -91 -12 -42 -12 -47 9 -67 37 -37 144 -27 233 21 3 1 4 -23 1 -55 -6
-78 7 -132 38 -155 23 -17 31 -18 75 -7 27 6 73 24 101 40 29 16 55 29 58 29
3 0 5 -27 5 -60 0 -97 32 -150 90 -150 25 0 115 82 137 125 l16 30 29 -65 c37
-83 72 -120 112 -120 62 1 108 47 136 136 l17 55 29 -42 c60 -87 156 -126 197
-81 20 22 40 122 35 169 -2 18 -2 33 0 33 2 0 18 -11 34 -26 45 -37 123 -74
157 -74 20 0 35 8 45 22 20 29 21 119 1 183 -8 27 -13 50 -12 52 2 1 27 -7 57
-18 59 -22 90 -19 121 12 25 25 22 72 -11 166 -25 72 -25 73 6 73 47 0 105 23
126 49 26 34 19 96 -19 160 -20 35 -23 46 -12 50 33 11 69 60 69 94 0 36 -17
56 -80 98 l-25 17 21 23 c30 33 37 64 25 102 -15 45 -61 70 -128 70 l-53 0 7
36 c5 20 8 58 8 84 0 41 -5 53 -28 73 -45 39 -137 26 -193 -27 l-21 -20 -7 32
c-3 17 -6 51 -6 76 0 51 -16 87 -57 124 -41 39 -66 43 -110 20 -39 -20 -102
-80 -120 -115 -9 -17 -12 -14 -23 20 -7 21 -31 74 -53 117 -42 83 -71 107
-126 107 -56 0 -133 -89 -162 -187 l-12 -42 -24 37 c-85 127 -193 170 -259
101 -26 -28 -29 -37 -32 -113 -3 -67 0 -93 16 -128 l20 -45 -43 43 c-33 32
-60 48 -112 64 -165 51 -198 38 -198 -84 0 -39 3 -86 7 -104 l8 -34 -30 26
c-45 38 -144 59 -176 38 -20 -13 -34 -50 -34 -87 0 -45 32 -137 65 -187 30
-45 30 -48 6 -41 -27 7 -109 -70 -113 -105 -2 -20 -12 -1 -37 71 -18 54 -34
97 -36 95 -2 -2 5 -46 15 -98 11 -52 35 -207 56 -345 33 -225 35 -254 24 -300
-16 -64 -40 -125 -49 -125 -4 0 -17 44 -29 98 -12 53 -37 152 -56 219 -53 185
-83 329 -121 575 -29 188 -58 447 -51 455 1 2 20 -6 41 -17 73 -37 146 -22
200 42 39 46 95 166 95 204 l0 31 98 7 c53 4 185 15 292 26 107 10 265 24 350
30 85 7 193 18 240 25 264 41 538 91 710 131 107 24 218 49 245 55 69 16 465
135 511 154 52 21 61 19 68 -17 11 -60 62 -154 102 -187 41 -34 117 -61 169
-61 41 0 96 37 108 73 16 50 0 96 -56 151 -50 50 -144 106 -176 106 -26 0 -42
-16 -35 -33 3 -9 34 -32 67 -49 34 -18 79 -49 100 -70 32 -30 38 -42 35 -70
l-3 -33 -55 0 c-40 0 -65 7 -93 24 -42 26 -163 179 -150 191 4 4 87 35 183 68
96 33 186 65 200 70 20 8 29 6 47 -10 12 -12 42 -23 68 -25 63 -8 87 14 83 76
-2 43 -1 45 32 59 19 8 103 51 185 97 106 58 164 84 198 89 26 3 60 12 75 20
35 19 47 6 33 -35z m-2120 1 c5 0 9 -4 9 -10 0 -5 -8 -10 -19 -10 -15 0 -17 5
-13 28 4 19 7 22 10 10 2 -10 8 -18 13 -18z m-6 -40 c-16 -4 -22 -8 -12 -9 31
-2 20 -31 -13 -31 -28 0 -29 1 -18 25 9 19 18 25 42 24 l31 -1 -30 -8z m2584
-24 c50 -47 189 -109 273 -120 l77 -10 10 -42 c16 -63 14 -179 -4 -221 -24
-56 -43 -73 -84 -73 -55 0 -78 22 -91 88 -20 94 -34 101 -87 42 -52 -58 -120
-71 -165 -33 -27 23 -48 101 -48 174 0 58 4 74 35 124 19 32 37 67 41 77 7 24
13 23 43 -6z m-4179 -25 c0 -5 -19 -12 -42 -16 -24 -4 -51 -12 -62 -17 -14 -8
-17 -7 -14 3 3 8 24 17 48 21 23 4 45 10 48 13 9 8 22 6 22 -4z m1580 -16 c-9
-8 -24 -12 -38 -9 -35 10 -26 24 15 24 33 0 36 -2 23 -15z m3164 -63 c8 -15
30 -73 49 -129 34 -96 35 -102 18 -117 -34 -31 -75 -20 -135 35 -35 32 -56 59
-56 73 0 12 -6 45 -14 74 l-13 52 61 20 c78 24 73 25 90 -8z m-1586 -78 c-4
-21 -44 -30 -87 -19 -25 7 -24 8 24 31 51 24 70 20 63 -12z m1476 -182 c3 -5
-4 -21 -16 -38 -19 -28 -20 -28 -14 -4 3 14 6 31 6 38 0 13 16 16 24 4z
m-5877 -133 c70 -6 187 -19 259 -29 136 -20 346 -77 370 -102 12 -11 10 -24
-9 -88 -20 -68 -22 -96 -22 -300 0 -187 4 -245 22 -345 29 -161 55 -239 103
-314 22 -34 40 -65 40 -69 0 -4 -33 -24 -73 -46 -388 -207 -525 -290 -546
-329 -12 -23 -12 -29 3 -52 16 -25 16 -25 -15 -25 -25 0 -30 3 -25 16 16 41
57 296 58 361 l1 71 36 5 c20 2 37 0 39 -4 2 -4 13 -4 25 2 13 6 38 7 61 2
l40 -9 -52 -33 c-29 -18 -52 -35 -52 -37 0 -6 80 35 113 58 15 11 36 18 47 16
14 -2 -6 -21 -77 -70 -53 -38 -93 -68 -90 -68 4 0 32 11 63 25 61 27 87 27 35
0 -52 -26 -35 -26 27 1 31 14 83 43 116 65 120 80 79 26 -59 -78 -33 -25 -62
-47 -64 -49 -2 -2 36 12 85 32 206 83 247 118 207 172 -27 36 -85 50 -252 58
-425 20 -1117 -94 -1636 -270 -210 -71 -350 -122 -405 -148 -25 -11 -68 -31
-96 -44 -107 -47 -254 -158 -254 -191 0 -11 11 -13 63 -6 34 4 138 8 230 8
115 0 159 3 140 9 -15 5 -108 9 -206 10 -97 1 -177 2 -177 3 0 2 17 14 39 28
31 21 53 27 112 29 63 3 68 2 32 -5 -128 -26 -130 -28 -28 -24 55 3 165 5 245
6 l145 1 -70 12 c-55 10 -64 13 -40 17 63 10 -183 21 -256 11 -41 -5 -75 -9
-76 -8 -1 1 26 16 60 34 52 27 77 33 162 38 131 9 180 25 60 20 -87 -4 -89 -4
-55 11 19 8 58 17 87 20 29 3 50 9 48 14 -5 7 47 25 127 44 23 6 26 4 21 -14
-15 -60 113 -382 172 -431 24 -20 18 -33 -32 -65 -54 -35 -73 -43 -55 -24 6 7
12 31 12 52 0 32 -7 46 -38 77 -45 46 -98 63 -274 90 -157 25 -195 25 -337 0
-136 -24 -155 -24 -171 -5 -10 12 -9 22 3 53 22 54 36 166 43 344 6 136 4 166
-15 263 -48 234 -134 439 -231 547 l-50 56 127 77 c158 95 494 261 628 310
443 164 1076 252 1532 214z m1268 -326 c-12 -53 -56 -138 -88 -170 -40 -42
-83 -44 -143 -5 l-43 27 -1 88 0 87 141 0 141 0 -7 -27z m1127 -100 c39 -44
66 -94 83 -158 27 -107 35 -100 -122 -97 -76 2 -140 5 -141 7 -2 2 1 33 7 70
12 77 54 152 104 184 40 26 38 26 69 -6z m-385 -44 c58 -22 163 -143 163 -188
0 -26 -3 -27 -127 -52 -71 -15 -130 -24 -133 -22 -8 7 -12 142 -6 187 7 44 36
86 61 86 7 0 26 -5 42 -11z m747 -68 c35 -39 57 -163 40 -228 l-6 -21 -51 23
c-29 12 -77 30 -107 40 -30 10 -59 21 -64 26 -12 10 35 89 83 139 42 45 77 52
105 21z m-1049 -126 c83 -20 132 -40 157 -62 17 -15 13 -19 -71 -59 -50 -23
-111 -57 -136 -74 -26 -18 -49 -30 -51 -27 -3 2 -8 52 -11 111 -6 106 2 140
30 131 7 -2 44 -11 82 -20z m1343 -62 c6 -9 12 -31 12 -48 0 -34 -27 -135 -40
-148 -4 -5 -28 7 -54 26 -25 20 -64 46 -86 58 -36 20 -40 27 -35 49 4 14 7 25
8 26 1 0 17 11 36 24 60 41 132 47 159 13z m3315 -127 l-8 -60 -65 -12 c-36
-7 -78 -17 -93 -23 -39 -15 -39 -15 -35 20 3 30 6 32 71 48 64 17 97 34 85 46
-3 3 -35 -6 -73 -20 -37 -14 -70 -24 -72 -21 -3 3 -3 20 1 39 l6 34 70 6 c77
6 109 19 112 45 0 9 3 4 5 -13 2 -16 0 -57 -4 -89z m-88 89 c-16 -7 -45 -16
-62 -20 -29 -6 -33 -4 -33 14 0 19 6 21 63 20 60 -1 61 -1 32 -14z m-5361 -69
c11 -1 22 -9 24 -16 4 -10 -3 -11 -24 -7 -16 3 -70 8 -119 11 l-90 6 45 -15
c25 -9 78 -18 117 -22 60 -5 74 -9 79 -25 3 -11 3 -22 0 -25 -2 -3 -59 5 -125
17 -100 19 -121 26 -121 40 0 10 -3 31 -6 47 l-6 30 104 -19 c56 -10 112 -20
122 -22z m617 -32 c27 -13 49 -29 49 -34 0 -6 -19 -36 -42 -68 -24 -32 -49
-74 -57 -95 -8 -20 -18 -37 -21 -37 -12 0 -79 156 -86 199 -10 65 -2 75 58 67
28 -4 73 -18 99 -32z m-753 -64 c35 -11 79 -20 97 -20 55 0 85 -16 85 -45 0
-23 -3 -25 -47 -25 -57 0 -175 18 -184 28 -7 7 -22 82 -17 82 2 0 32 -9 66
-20z m2432 -15 c30 -27 25 -60 -15 -100 -34 -33 -65 -46 -65 -26 0 5 -20 31
-45 58 -42 48 -43 51 -28 73 14 20 22 22 74 18 38 -3 65 -11 79 -23z m3140 1
c0 -46 -24 -172 -33 -178 -7 -4 -34 -8 -62 -8 -27 0 -69 -9 -92 -20 -29 -13
-43 -15 -43 -7 1 28 29 140 36 147 5 4 32 15 59 24 28 9 66 25 85 36 43 23 50
24 50 6z m-3662 -58 c-8 -13 -41 -67 -73 -121 -32 -54 -61 -96 -66 -95 -8 3
-169 214 -169 222 0 5 62 8 254 14 l68 2 -14 -22z m-388 6 c0 -12 -193 -245
-200 -242 -5 2 -47 54 -94 116 -56 72 -82 114 -74 117 7 3 83 6 168 8 85 1
165 4 178 5 12 1 22 -1 22 -4z m568 -159 c33 -38 59 -71 57 -74 -7 -6 -335
-17 -333 -10 2 3 34 58 72 122 l69 116 37 -42 c20 -23 64 -73 98 -112z m-2031
115 c32 -6 75 -10 96 -10 30 0 37 -4 37 -19 0 -11 3 -27 6 -36 5 -13 2 -15
-17 -10 -13 3 -64 9 -112 14 -48 5 -90 11 -92 13 -3 2 -8 19 -11 37 -6 30 -5
33 14 27 11 -4 46 -11 79 -16z m1593 -93 c45 -60 80 -110 78 -112 -1 -2 -86
-7 -187 -11 l-185 -7 74 89 c40 49 85 104 99 121 14 18 29 32 33 30 4 -1 43
-51 88 -110z m-451 -18 c46 -60 82 -111 80 -113 -2 -2 -84 -6 -182 -10 l-179
-6 42 52 c23 29 65 83 94 120 28 37 53 67 56 67 3 1 43 -49 89 -110z m1257 11
c66 -46 55 -100 -24 -116 -30 -6 -32 -5 -32 22 0 16 -5 46 -11 68 -8 31 -8 41
3 47 18 12 14 13 64 -21z m-2351 4 c44 -4 82 -6 84 -5 8 5 21 -25 21 -48 0
-22 -3 -23 -37 -16 -21 4 -68 11 -105 14 -37 4 -69 9 -72 11 -2 3 -8 18 -12
34 -6 27 -5 28 17 23 13 -3 60 -9 104 -13z m556 -5 c-2 -8 -6 -57 -10 -109
l-6 -95 -52 52 c-29 29 -53 60 -53 70 0 19 63 86 90 96 22 8 36 2 31 -14z
m4875 -55 c-3 -8 -18 -14 -34 -14 -16 0 -61 -8 -100 -19 l-72 -19 0 23 c0 19
9 24 58 35 31 7 77 23 102 35 l45 23 3 -25 c2 -13 1 -31 -2 -39z m-5507 -28
c9 -8 36 -19 61 -24 l45 -10 -61 -1 c-48 -1 -63 3 -68 15 -13 35 -4 44 23 20z
m5498 -52 l0 -36 -53 5 c-48 5 -87 0 -141 -17 -18 -6 -23 -4 -23 11 0 29 20
43 65 44 22 0 60 6 85 13 66 19 67 19 67 -20z m-5319 9 c-10 -2 -26 -2 -35 0
-10 3 -2 5 17 5 19 0 27 -2 18 -5z m-170 -23 c34 -13 76 -20 121 -20 54 0 70
-3 75 -16 5 -14 1 -15 -21 -10 -51 12 -289 19 -278 8 6 -5 51 -24 100 -41 l90
-31 -130 -1 c-129 0 -130 0 -80 -14 28 -8 55 -14 60 -15 6 0 4 -4 -4 -9 -9 -6
3 -11 35 -16 78 -11 28 -29 -63 -22 -41 3 -73 4 -71 2 1 -1 65 -19 141 -39 94
-25 159 -36 207 -36 39 0 70 -4 70 -9 0 -5 -112 -6 -260 -3 -143 3 -260 3
-260 0 0 -3 35 -11 78 -17 42 -7 111 -21 152 -31 l75 -19 -225 3 -225 2 110
-23 c61 -13 148 -29 195 -37 l85 -13 -200 -6 c-110 -4 -236 -3 -280 2 l-80 8
60 2 c33 2 56 4 50 6 -5 1 -38 11 -72 20 -35 10 -63 21 -63 24 0 9 97 82 145
111 113 66 334 207 365 232 19 15 37 28 40 28 3 0 29 -9 58 -20z m565 -54 l38
-13 -33 -41 c-18 -22 -35 -41 -38 -41 -3 -1 -15 32 -28 72 -13 39 -26 79 -29
87 -3 8 8 0 23 -18 16 -18 46 -39 67 -46z m1545 66 c-3 -7 -485 -471 -525
-506 -20 -17 -19 -10 13 80 20 55 61 171 92 259 l57 160 130 5 c72 3 154 7
183 8 30 1 52 -1 50 -6z m-410 -24 c-137 -385 -182 -508 -185 -505 -5 6 -193
490 -193 499 0 7 84 12 274 16 83 2 107 -1 104 -10z m-327 -251 c53 -136 94
-247 90 -245 -20 8 -550 472 -545 477 5 5 279 19 334 17 22 -1 32 -21 121
-249z m1031 197 c16 -27 28 -65 28 -85 0 -31 -4 -38 -27 -47 -37 -14 -113 -24
-113 -15 0 3 11 34 24 67 13 34 28 78 31 99 9 48 23 44 57 -19z m3107 -9 l20
-35 -72 6 c-46 4 -97 1 -139 -8 -68 -15 -73 -13 -62 16 5 12 21 16 68 16 39 0
76 7 101 19 55 27 60 26 84 -14z m-4846 -140 c13 -22 31 -52 40 -66 14 -21 15
-28 4 -43 -12 -16 -18 -17 -50 -7 -43 14 -107 82 -107 114 0 12 14 51 31 87
l31 65 14 -55 c8 -30 25 -72 37 -95z m-449 99 c4 -9 5 -18 4 -20 -2 -1 -28 4
-58 11 l-55 13 40 4 c22 3 45 5 51 6 7 1 15 -5 18 -14z m5360 -33 c12 -11 62
-47 111 -81 l90 -62 -100 9 c-115 9 -316 7 -405 -6 -61 -8 -61 -8 -58 17 3 25
3 25 108 23 83 -1 123 4 189 22 l85 24 -55 6 c-74 9 -215 8 -266 -2 -43 -8
-48 -6 -37 23 5 13 24 16 93 17 47 0 109 7 136 14 71 18 86 17 109 -4z m-3265
-188 c20 -102 12 -143 -30 -143 -10 0 -45 12 -78 26 l-60 26 44 43 c24 24 53
62 65 85 27 52 43 43 59 -37z m3585 -22 c83 -45 103 -60 89 -66 -35 -15 -823
-35 -823 -21 0 2 2 11 5 19 5 12 13 12 58 0 79 -20 232 -16 401 12 83 13 165
26 181 28 17 2 -6 5 -50 6 -44 1 -127 6 -185 11 -67 6 -155 5 -243 -1 -76 -6
-141 -9 -143 -6 -2 2 -2 11 1 19 5 12 34 14 178 10 152 -3 186 0 297 21 69 14
125 26 126 26 0 1 48 -25 108 -58z m-5004 -110 c36 -25 85 -61 110 -80 25 -19
69 -45 98 -58 29 -14 50 -29 46 -34 -10 -17 -108 -62 -164 -75 -79 -19 -85
-11 -85 120 l1 102 -39 -18 c-46 -23 -122 -33 -172 -24 -35 7 -37 9 -31 39 3
18 22 64 42 103 l35 72 47 -50 c26 -28 76 -71 112 -97z m-3808 -16 c-3 -77 -1
-105 7 -105 7 0 22 -12 34 -26 20 -23 30 -26 87 -26 36 1 98 8 138 16 40 9 94
16 120 15 l47 0 -78 -31 c-42 -17 -75 -33 -73 -35 2 -3 46 12 96 32 74 30 99
35 129 30 l36 -7 -65 -29 c-141 -63 -248 -114 -245 -117 1 -2 44 9 95 23 83
23 187 68 246 105 16 10 31 11 55 4 33 -9 30 -11 -111 -73 -80 -35 -173 -75
-207 -89 -35 -14 -62 -27 -60 -28 2 -2 52 10 113 27 108 30 248 89 302 127 26
19 82 20 82 3 0 -21 -319 -182 -480 -242 -101 -38 -79 -36 76 6 146 40 303
112 383 175 l53 42 21 -21 c14 -13 18 -24 12 -30 -11 -10 -340 -157 -418 -186
-82 -31 -44 -28 65 5 144 43 214 69 283 103 72 36 59 13 -24 -40 -88 -56 -194
-100 -355 -148 -316 -93 -522 -116 -741 -82 l-90 14 40 17 c186 82 330 171
404 250 16 17 35 26 55 26 l31 0 -25 13 c-14 7 -45 25 -70 39 -25 14 -108 52
-185 83 -77 31 -187 82 -245 113 l-105 56 85 13 c47 6 113 12 146 13 80 0 220
25 281 49 26 10 51 19 54 20 3 1 4 -46 1 -104z m5050 8 c15 -13 18 -32 18
-104 0 -96 -5 -119 -26 -119 -23 0 -95 39 -146 80 l-46 36 79 53 c44 30 82 57
85 62 8 13 15 11 36 -8z m6238 -24 c25 -5 106 -12 181 -15 127 -6 251 5 354
33 29 8 -37 -42 -220 -165 -88 -59 -181 -123 -208 -142 -42 -30 -51 -33 -76
-23 l-29 11 19 -32 c25 -41 255 -256 342 -319 37 -27 66 -51 63 -54 -2 -3 -44
0 -93 6 -48 6 -135 11 -193 11 -126 0 -257 15 -324 36 -45 14 -418 195 -413
200 1 2 27 -6 58 -16 84 -29 372 -110 375 -107 2 2 -33 18 -79 37 -45 18 -152
68 -237 110 -85 43 -200 97 -255 120 -111 48 -130 60 -97 60 12 0 72 -25 134
-56 61 -30 145 -69 186 -85 94 -36 352 -112 359 -106 2 3 -6 8 -19 12 -13 4
-132 54 -266 111 -133 57 -253 106 -267 110 -14 3 -28 10 -31 15 -10 17 33 9
137 -27 115 -39 382 -115 387 -110 2 2 -16 11 -40 19 -328 117 -352 130 -188
97 78 -16 203 -30 259 -30 48 0 57 4 86 34 30 32 32 38 24 78 -4 24 -8 81 -9
127 0 75 2 82 18 76 9 -3 37 -11 62 -16z m-6450 -119 c0 -31 -30 -172 -41
-192 -14 -27 -44 -22 -83 13 -33 29 -106 120 -106 132 0 3 25 11 56 17 30 7
79 20 107 30 67 24 67 24 67 0z m-670 -40 c41 -11 85 -20 96 -20 28 0 38 -26
21 -51 -26 -36 -128 -119 -148 -119 -11 0 -23 10 -28 23 -9 23 -26 187 -20
187 2 0 38 -9 79 -20z m400 -49 c-38 -135 -115 -207 -163 -153 -16 17 -57 104
-71 150 -7 22 -6 22 81 23 48 1 102 5 118 8 40 10 45 6 35 -28z m5841 -78 c13
-15 12 -15 -8 -4 -24 12 -29 21 -14 21 5 0 15 -7 22 -17z m43 -67 c142 -108
252 -167 446 -237 58 -21 100 -38 95 -38 -22 -2 -273 81 -340 112 -151 68
-295 170 -295 208 0 10 2 19 5 19 3 0 43 -29 89 -64z m-6762 -14 c52 -47 111
-137 128 -195 9 -36 10 -53 0 -81 -11 -35 -54 -75 -66 -63 -3 3 -21 68 -41
144 -33 133 -56 185 -107 242 l-21 24 33 -17 c18 -10 52 -34 74 -54z m4014
-12 c-91 -36 -144 -110 -191 -270 -40 -138 -60 -164 -99 -124 -38 37 -5 166
69 269 25 35 59 74 76 86 44 31 118 58 159 58 l35 0 -49 -19z m-7239 -141
c-27 -16 -158 -59 -176 -58 -9 0 27 16 79 34 98 35 128 42 97 24z m3714 -834
c25 -57 55 -195 69 -315 11 -95 3 -230 -21 -339 -9 -44 -13 -51 -24 -40 -19
20 -89 165 -108 224 -44 134 -72 353 -58 440 6 36 11 41 51 57 64 24 69 23 91
-27z m-241 -22 c0 -106 78 -435 126 -531 36 -70 104 -155 133 -164 13 -4 13
-17 2 -94 -7 -49 -19 -113 -27 -143 -8 -29 -13 -55 -11 -58 6 -6 67 88 67 104
0 7 4 13 9 13 4 0 11 -23 14 -51 13 -106 83 -165 187 -155 52 5 58 8 113 66
34 36 59 56 61 48 3 -7 12 -39 21 -70 24 -81 95 -158 151 -165 36 -5 45 -1 77
27 20 17 46 47 58 67 l22 35 12 -34 c36 -105 121 -172 221 -172 42 -1 58 4 76
21 l22 22 57 -54 c33 -31 67 -55 79 -55 35 0 75 26 105 69 15 23 29 41 30 41
1 0 14 -17 28 -38 14 -22 42 -47 63 -57 38 -18 39 -18 83 6 27 14 55 40 71 66
l27 43 27 -38 c30 -44 70 -76 105 -85 54 -14 135 53 186 154 l26 51 28 -45
c78 -122 202 -120 256 5 10 23 20 44 21 46 1 2 23 -11 50 -27 84 -54 174 -35
252 54 37 42 94 145 117 210 6 16 10 11 25 -31 23 -66 44 -105 67 -126 19 -18
19 -17 1 53 -10 39 -21 100 -24 135 -7 61 -6 64 24 89 69 58 161 245 214 435
16 59 24 77 27 60 3 -21 6 -18 22 25 l19 50 -3 -65 -4 -65 18 40 c10 22 19 49
20 60 1 11 5 0 8 -25 l6 -45 21 60 21 60 8 -85 8 -85 17 55 c17 54 17 54 24
25 4 -16 9 -34 10 -40 2 -5 6 9 10 33 10 56 26 44 27 -21 l1 -52 13 35 c9 23
14 28 14 15 2 -65 -45 -699 -59 -791 -5 -38 -10 -73 -10 -78 0 -5 -18 12 -40
37 -48 54 -106 77 -195 77 -91 0 -147 -23 -219 -90 -92 -87 -136 -169 -261
-490 -49 -124 -102 -251 -157 -373 -18 -39 -32 -54 -68 -72 -46 -23 -177 -67
-240 -80 l-35 -7 47 36 c58 45 69 73 38 98 l-22 18 36 0 c48 0 89 22 121 65
37 48 42 100 16 160 -11 26 -21 49 -21 51 0 2 23 4 50 4 45 0 55 4 96 42 60
55 74 85 74 155 l-1 58 -16 -30 c-9 -16 -28 -41 -42 -55 -14 -14 -56 -58 -94
-98 -66 -71 -80 -81 -91 -63 -10 16 6 41 36 57 31 16 61 72 73 136 5 27 1 49
-16 86 l-23 50 -17 -52 c-38 -118 -59 -191 -59 -210 0 -41 -13 -47 -58 -29
l-42 16 19 21 c56 59 78 176 42 221 l-18 24 -12 -26 c-7 -15 -17 -63 -23 -107
-14 -109 -21 -126 -55 -126 -47 -1 -106 -35 -158 -92 -27 -29 -55 -63 -61 -73
-10 -17 -13 -8 -19 53 -5 43 -13 76 -20 78 -25 10 -153 -28 -223 -67 -66 -36
-73 -38 -67 -19 15 48 -90 196 -133 188 -22 -4 -110 -114 -129 -160 l-15 -37
-38 28 c-46 33 -182 84 -213 79 -19 -3 -24 -14 -37 -92 -14 -84 -16 -88 -28
-62 -31 69 -149 176 -192 176 -22 0 -50 71 -50 124 0 21 -7 63 -17 94 l-16 57
-18 -40 c-26 -56 -24 -107 4 -142 13 -15 31 -41 41 -56 l18 -29 -34 7 c-37 8
-78 41 -78 63 0 8 -9 27 -20 42 -11 16 -27 48 -35 71 -9 23 -20 48 -26 55 -6
7 -17 33 -24 56 l-12 43 -13 -71 c-11 -62 -11 -77 4 -122 19 -57 56 -102 84
-102 10 0 27 -9 38 -21 15 -17 16 -22 4 -29 -23 -14 -67 16 -113 77 -23 31
-58 73 -78 94 l-36 39 -7 -39 c-12 -76 29 -127 132 -161 37 -12 68 -24 70 -25
2 -2 -7 -23 -19 -47 -54 -106 5 -228 112 -228 38 0 79 33 79 63 0 50 -64 74
-102 40 -39 -35 -82 29 -59 85 24 58 46 72 112 72 39 0 73 -7 97 -19 49 -25
149 -131 158 -167 4 -16 11 -35 17 -41 7 -10 1 -13 -28 -13 -58 0 -235 -58
-235 -77 0 -8 23 -45 52 -82 28 -36 56 -71 60 -78 23 -30 -262 60 -353 112
-50 28 -70 55 -73 103 -2 20 -33 116 -70 212 -37 96 -86 227 -108 290 -121
347 -261 501 -457 500 -46 0 -122 -28 -135 -49 -19 -30 -24 4 -29 177 -3 103
-12 285 -22 406 -9 120 -14 223 -11 230 2 6 5 -2 5 -19 2 -51 19 -8 26 67 4
37 10 70 14 73 4 2 16 -31 27 -73 l19 -77 3 45 c4 71 13 80 27 30 12 -40 13
-42 14 -15 l2 30 14 -30 c13 -30 13 -30 15 -5 l2 25 8 -25 c7 -22 8 -20 10 15
l1 40 20 -54 c10 -30 22 -57 25 -60 8 -7 -3 203 -12 237 -4 13 -2 22 5 22 6 0
11 -16 11 -37z m3212 -54 c16 -9 18 -17 13 -52 -25 -144 -142 -487 -199 -581
l-24 -40 -7 78 c-13 137 13 370 61 540 14 50 28 94 30 98 4 7 82 -20 126 -43z
m-2619 -273 c37 -15 104 -85 132 -138 11 -21 24 -38 29 -38 4 0 26 20 47 44
78 88 115 83 220 -33 64 -70 79 -77 79 -38 1 30 65 116 96 127 35 14 78 -10
117 -66 34 -48 57 -57 57 -21 0 25 47 99 82 130 32 27 56 20 111 -32 l53 -50
64 50 c35 27 69 49 75 49 6 0 34 -11 61 -25 48 -24 96 -72 123 -123 14 -27 36
-24 36 4 0 21 70 53 122 53 35 1 69 -32 93 -88 15 -36 42 -38 45 -4 4 50 92
113 156 113 36 0 47 -6 79 -40 20 -22 41 -40 46 -40 5 0 16 13 26 29 16 29
101 85 144 97 34 9 95 -12 162 -56 61 -39 62 -40 62 -86 l0 -47 -56 62 c-87
95 -155 122 -207 81 -33 -26 -102 -150 -118 -213 -7 -26 -16 -47 -19 -47 -3 0
-25 37 -50 82 -61 111 -86 140 -119 136 -31 -4 -78 -76 -106 -164 l-18 -57
-22 69 c-27 87 -40 110 -70 130 -55 36 -109 -15 -161 -153 l-31 -83 -31 119
c-17 65 -42 137 -56 160 -23 35 -31 41 -62 41 -38 0 -83 -19 -104 -45 -7 -9
-23 -57 -35 -108 -24 -100 -21 -101 -45 25 -14 70 -60 138 -93 138 -46 0 -85
-65 -112 -188 -9 -37 -18 -78 -21 -91 -4 -19 -11 -7 -34 58 -30 87 -48 114
-92 137 -34 18 -68 6 -96 -33 -23 -32 -82 -175 -82 -198 0 -8 -4 -15 -10 -15
-5 0 -10 21 -10 48 -2 116 -90 239 -167 230 -37 -4 -85 -76 -116 -175 l-24
-74 -16 82 c-21 103 -47 158 -98 203 -71 65 -141 39 -211 -78 l-30 -51 6 50
c5 45 12 56 65 108 62 60 80 66 134 43z m27 -124 c42 -43 50 -59 75 -151 15
-56 25 -104 22 -107 -8 -8 -323 58 -335 71 -8 7 111 196 135 215 37 29 51 25
103 -28z m918 -14 c20 -53 42 -145 60 -248 6 -30 13 -65 17 -77 7 -23 7 -23
-103 -23 -61 0 -113 3 -115 8 -8 13 23 217 43 285 19 63 48 107 69 107 5 0 18
-24 29 -52z m273 12 c24 -33 65 -195 74 -294 l8 -79 -24 6 c-13 4 -72 7 -130
7 l-107 0 5 68 c6 80 37 221 58 262 32 61 83 75 116 30z m983 -31 c50 -45 116
-150 116 -184 0 -13 -150 -55 -289 -81 -70 -13 -85 -14 -92 -2 -13 20 -1 64
41 153 88 184 126 203 224 114z m-1851 -19 c42 -36 83 -125 95 -205 6 -33 9
-61 8 -61 -3 -3 -261 38 -265 42 -13 12 50 190 80 228 26 33 41 33 82 -4z
m1437 -12 c36 -57 99 -192 105 -224 6 -30 4 -32 -32 -37 -21 -4 -79 -10 -127
-13 l-89 -7 7 63 c11 98 74 250 103 250 7 0 22 -15 33 -32z m-252 -53 c27 -68
82 -229 79 -231 -1 -2 -62 -6 -135 -10 -131 -7 -132 -7 -132 15 0 33 38 140
72 201 61 110 80 114 116 25z m-874 30 c21 -22 71 -156 90 -237 6 -26 4 -28
-26 -28 -17 0 -72 5 -121 11 l-89 12 6 41 c3 23 19 73 35 112 50 123 63 134
105 89z m-704 -176 l161 -42 -88 -89 c-48 -49 -99 -91 -111 -95 -37 -9 -68 31
-113 142 -41 105 -48 141 -25 132 8 -3 87 -25 176 -48z m2324 -86 c-39 -111
-69 -154 -140 -201 -42 -29 -54 -33 -89 -27 -22 3 -47 13 -57 22 -27 25 -56
94 -60 142 l-2 44 90 23 c89 22 262 79 272 89 21 21 17 -9 -14 -92z m-1966 -4
c107 -23 112 -25 112 -49 0 -14 -13 -47 -29 -75 -38 -65 -131 -169 -142 -158
-23 23 -99 231 -99 272 0 40 2 43 23 38 12 -2 73 -15 135 -28z m-531 -94 c12
-22 33 -53 49 -68 63 -63 116 -44 207 77 l64 86 7 -42 c7 -44 84 -240 113
-286 12 -20 5 -16 -30 17 -25 24 -59 72 -76 106 -35 71 -61 99 -69 75 -3 -8
-25 -36 -50 -62 -39 -42 -50 -48 -85 -48 -67 0 -118 32 -150 93 -39 75 -48
113 -35 145 l10 27 12 -40 c7 -22 22 -58 33 -80z m2563 62 c0 -56 -74 -192
-138 -253 -33 -32 -99 -63 -132 -64 -28 0 -82 29 -122 67 -28 27 -53 23 -43
-7 8 -24 -6 -50 -52 -101 -28 -30 -43 -39 -68 -39 -43 0 -92 41 -116 96 -22
48 -44 70 -54 54 -3 -5 -3 -14 0 -20 9 -14 -58 -111 -110 -159 -58 -54 -97
-56 -144 -7 -18 18 -38 51 -46 72 -14 42 -39 52 -41 17 -2 -29 -48 -90 -88
-114 -58 -35 -88 -21 -146 66 -18 28 -35 52 -37 54 -2 3 -8 0 -15 -7 -8 -8 -8
-15 1 -25 9 -12 2 -22 -34 -56 -63 -58 -90 -56 -149 11 -25 29 -46 58 -46 64
0 27 -33 23 -61 -7 -27 -29 -33 -31 -76 -25 -25 3 -60 15 -77 26 -30 18 -86
92 -116 153 -18 36 -32 34 -54 -5 -29 -51 -98 -118 -121 -117 -20 0 -20 0 0
11 30 15 106 111 141 178 l31 60 7 -42 c12 -76 26 -109 44 -103 13 3 24 -8 41
-41 52 -96 113 -130 157 -87 23 23 53 93 63 146 9 45 12 41 31 -43 16 -67 53
-151 74 -169 44 -37 105 30 141 156 l22 75 12 -48 c27 -110 85 -194 133 -194
32 0 69 58 103 160 17 48 28 66 42 68 17 2 21 -4 27 -38 8 -49 46 -128 72
-151 60 -53 94 -26 169 134 l58 124 57 -87 c51 -77 100 -130 119 -130 23 0 47
37 75 119 l33 94 22 -37 c29 -47 69 -67 133 -68 95 0 205 101 244 227 19 58
34 64 34 12z m-1622 -33 c27 -4 32 -9 27 -22 -4 -9 -10 -39 -14 -67 -7 -47
-50 -145 -84 -189 -14 -19 -15 -19 -40 6 -39 39 -154 278 -143 297 4 6 121 -5
254 -25z m1156 -1 c-16 -115 -66 -269 -83 -259 -23 15 -125 174 -138 215 -7
24 -11 46 -9 49 5 4 168 29 208 31 25 1 26 -1 22 -36z m-274 -1 c0 -54 -130
-332 -155 -332 -19 0 -58 53 -92 125 -21 45 -27 76 -28 123 0 35 4 66 9 69 5
3 54 9 110 13 151 11 156 11 156 2z m-643 -12 c34 0 34 0 28 -37 -12 -77 -57
-232 -77 -264 -19 -32 -21 -32 -34 -14 -23 32 -65 183 -71 258 l-5 70 62 -6
c35 -4 78 -7 97 -7z m333 -17 c0 -14 -2 -15 -9 -5 -10 16 -20 -11 -44 -110
-19 -78 -71 -198 -86 -198 -23 0 -49 40 -82 126 -29 74 -35 99 -31 147 l4 57
124 0 c111 0 124 -2 124 -17z m-1820 -213 c136 -68 289 -303 365 -558 38 -128
83 -245 116 -301 11 -18 18 -36 15 -39 -6 -5 -248 76 -399 134 -80 30 -103 44
-124 73 -15 20 -45 53 -67 74 l-41 39 46 -6 c26 -3 61 -1 80 4 137 40 188 291
78 385 -37 31 -66 32 -96 3 -32 -30 -29 -67 11 -119 40 -53 49 -93 30 -135
-18 -37 -50 -54 -102 -54 -68 0 -82 9 -109 69 -66 147 -95 272 -73 320 50 108
59 119 107 136 47 17 92 10 163 -25z m3241 -51 c21 -10 46 -31 57 -46 26 -38
72 -156 72 -185 0 -32 -55 -155 -119 -266 -29 -51 -54 -92 -56 -92 -2 0 -20
10 -40 21 -42 25 -75 83 -75 132 0 34 35 92 79 131 28 25 28 70 -1 90 -56 40
-142 5 -180 -72 -19 -39 -23 -63 -23 -139 0 -86 2 -94 30 -135 34 -48 96 -88
138 -88 15 0 27 -2 27 -4 0 -3 -14 -27 -31 -54 l-31 -50 -111 -31 c-62 -16
-173 -42 -247 -56 -74 -14 -143 -27 -152 -29 -10 -2 -18 -3 -18 -1 0 1 25 43
56 91 71 114 89 148 191 379 97 219 155 317 220 375 72 63 132 71 214 29z
m-4828 -49 c320 -31 521 -64 769 -127 125 -31 226 -59 224 -61 -2 -2 -41 4
-87 13 -45 8 -83 14 -85 12 -2 -1 63 -29 144 -61 304 -121 409 -180 385 -219
-6 -10 -31 -2 -103 35 -52 26 -92 48 -88 48 10 0 131 -52 153 -67 27 -18 44
-16 20 3 -33 25 -167 91 -272 133 -102 40 -302 105 -308 99 -2 -2 64 -30 146
-62 82 -33 148 -61 146 -62 -1 -2 -52 12 -112 31 -61 19 -114 35 -120 35 -5 0
104 -46 243 -102 138 -56 252 -105 252 -108 0 -4 -17 -12 -37 -18 -35 -11 -43
-9 -113 27 -41 22 -110 53 -153 70 -75 30 -304 101 -323 101 -5 0 112 -48 259
-107 158 -63 263 -110 255 -114 -6 -4 -25 -1 -41 8 -79 40 -472 171 -483 160
-2 -1 95 -43 214 -92 271 -110 252 -101 221 -115 -21 -10 -39 -6 -125 28 -105
42 -333 116 -339 110 -3 -3 187 -77 385 -150 23 -9 24 -10 7 -22 -14 -11 -33
-7 -122 25 -106 39 -325 103 -331 96 -5 -5 234 -91 331 -119 41 -12 75 -25 75
-29 0 -18 -42 -18 -86 0 -66 25 -205 64 -211 58 -2 -3 47 -22 109 -42 62 -21
117 -40 122 -43 4 -2 -5 -13 -22 -24 l-31 -19 -97 30 c-54 17 -107 31 -119 30
-11 0 29 -16 89 -36 l109 -35 -31 -18 c-17 -11 -37 -28 -44 -39 -9 -15 -20
-19 -38 -15 l-25 4 24 -10 c12 -5 21 -16 18 -23 -3 -7 1 -24 9 -38 7 -13 13
-32 14 -42 0 -16 -5 -15 -47 7 -118 59 -291 110 -658 191 -278 62 -405 84
-480 86 -45 1 -47 2 -20 9 106 31 627 100 753 100 57 0 46 16 -17 23 -32 4
-96 29 -187 75 -145 73 -439 208 -527 244 -29 11 -114 42 -190 68 l-138 48 68
11 c37 7 91 16 118 21 70 13 301 4 548 -20z m1304 -338 c20 -25 9 -24 -38 3
l-44 25 35 -6 c19 -4 41 -13 47 -22z m-217 8 c8 -5 11 -10 5 -10 -5 0 -17 5
-25 10 -8 5 -10 10 -5 10 6 0 17 -5 25 -10z m2117 -177 c37 -45 38 -49 36
-116 -2 -39 -4 -71 -6 -73 -1 -1 -21 0 -45 3 -41 5 -42 7 -42 43 0 21 -3 52
-6 69 l-7 32 -18 -42 c-11 -22 -19 -52 -19 -64 0 -18 -7 -25 -30 -30 -38 -8
-50 0 -50 33 0 46 20 104 58 169 l35 62 28 -20 c16 -11 45 -41 66 -66z m-1762
-50 c19 -27 35 -51 35 -55 0 -4 -17 -10 -37 -13 -96 -16 -91 -16 -58 1 l30 14
-35 -6 c-19 -3 -44 -7 -55 -10 -11 -2 -6 3 10 11 17 8 23 14 14 15 -33 0 -196
-52 -277 -90 -45 -21 -104 -42 -130 -46 -26 -4 -60 -16 -75 -26 -16 -11 -30
-18 -33 -15 -6 6 168 107 185 107 6 0 11 4 11 8 0 20 312 149 367 152 7 0 28
-21 48 -47z m2100 -65 l7 -103 -42 -36 -43 -37 -34 21 c-41 24 -48 38 -33 66
11 21 10 21 -23 5 -27 -13 -40 -14 -76 -4 -34 9 -41 15 -36 28 4 9 9 32 12 51
5 29 13 37 61 59 63 28 135 50 173 51 26 1 26 1 34 -101z m280 88 c70 -18 92
-32 111 -67 17 -33 14 -62 -9 -93 -14 -19 -14 -19 -35 2 -24 24 -71 29 -90 10
-20 -20 -14 -75 10 -98 29 -27 21 -25 -52 9 -34 16 -88 32 -121 36 -57 7 -59
8 -59 36 0 35 62 108 129 151 52 32 50 32 116 14z m-986 -11 c117 -25 138 -37
151 -85 6 -23 13 -47 16 -54 3 -8 -16 -19 -55 -31 l-60 -18 -46 49 -47 49 23
-40 c12 -22 28 -47 35 -55 12 -14 9 -19 -17 -34 -30 -17 -30 -17 -50 8 -11 14
-27 26 -35 26 -18 0 -28 41 -21 98 4 41 22 102 29 102 2 0 36 -7 77 -15z
m2177 -104 c93 -27 230 -69 304 -94 l135 -44 -33 -20 -34 -21 -56 23 c-76 31
-262 88 -268 83 -2 -3 61 -29 141 -59 80 -29 145 -57 145 -61 0 -20 -45 -14
-123 17 -88 36 -288 97 -295 91 -4 -4 230 -97 293 -116 51 -16 62 -26 36 -35
-13 -4 -47 4 -89 21 -69 28 -292 87 -299 80 -2 -2 67 -27 154 -56 87 -29 162
-56 167 -60 5 -5 -9 -14 -31 -20 -36 -11 -47 -9 -135 24 -101 37 -247 80 -253
74 -2 -2 67 -28 153 -57 86 -30 161 -58 166 -62 16 -14 -67 -22 -98 -9 -79 32
-228 81 -238 78 -6 -2 43 -24 108 -48 66 -24 123 -47 127 -50 5 -4 -8 -11 -27
-14 -28 -5 -57 1 -128 27 -90 33 -158 51 -158 42 0 -2 53 -21 118 -42 l117
-37 -42 -12 c-61 -18 -82 -19 -146 -5 -31 7 -63 11 -70 8 -6 -2 12 -7 41 -11
72 -11 68 -30 -5 -22 -33 3 -50 2 -39 -2 18 -8 18 -9 2 -15 -10 -4 -28 -7 -41
-7 -21 0 -22 3 -15 38 5 20 10 86 12 146 3 106 4 108 30 122 15 8 37 14 48 14
14 0 47 26 88 69 37 38 67 69 68 70 0 0 77 -21 170 -48z m-3496 -22 c0 -5 -12
-9 -27 -9 -16 0 -66 -7 -112 -15 -47 -8 -86 -13 -88 -11 -2 2 40 22 94 44 l98
41 18 -20 c9 -12 17 -25 17 -30z m30 -28 c0 -6 -131 -31 -138 -26 -2 2 23 12
55 22 54 19 83 20 83 4z m135 -51 c2 0 -2 -15 -10 -33 -11 -26 -35 -162 -35
-197 0 -4 -17 -11 -37 -15 -37 -7 -173 21 -173 36 0 4 47 22 105 40 95 30 130
49 90 49 -20 0 -143 -47 -182 -70 -30 -18 -33 -18 -113 2 -45 12 -78 24 -73
28 4 4 46 20 93 35 89 29 282 107 277 112 -7 6 -174 -26 -222 -42 -61 -21
-144 -62 -167 -82 -12 -11 -28 -13 -54 -8 -20 3 -33 10 -28 14 5 5 65 29 134
54 69 26 163 62 210 81 l85 34 48 -19 c26 -10 50 -19 52 -19z m1067 -17 c18
-15 35 -28 37 -30 2 -1 -4 -9 -12 -17 -9 -9 -24 -27 -35 -41 -18 -22 -23 -24
-49 -14 -15 6 -48 14 -73 19 -25 5 -54 12 -65 16 -24 10 49 -57 92 -83 31 -19
31 -19 13 -43 -16 -21 -20 -22 -36 -10 -18 16 -124 146 -124 154 0 2 21 12 48
21 26 10 70 26 97 36 65 24 68 24 107 -8z m893 2 c35 -8 155 -66 155 -76 0 -8
-164 -119 -177 -119 -5 0 -16 11 -23 25 -11 20 -11 27 1 42 12 15 12 16 -4 10
-13 -5 -32 4 -63 29 -24 20 -44 39 -44 43 0 3 10 12 21 20 17 10 23 10 29 1 5
-8 13 -4 26 14 11 14 26 23 34 21 8 -2 29 -7 45 -10z m-2555 -25 c-30 -17 -57
-35 -60 -40 -6 -10 -70 9 -70 20 0 4 144 44 175 48 6 1 -15 -12 -45 -28z
m2185 19 c69 -19 223 -131 255 -186 22 -37 22 -38 -49 -47 -42 -6 -45 -5 -100
47 -74 70 -147 99 -256 101 -96 1 -127 -12 -213 -90 -54 -48 -65 -54 -104 -54
-23 0 -49 4 -55 8 -19 12 94 132 155 165 104 56 272 82 367 56z m-1334 -69
c97 -32 203 -72 235 -89 96 -48 261 -101 379 -121 547 -93 1151 -50 1523 108
38 16 84 33 103 37 45 9 329 96 352 107 16 8 17 0 15 -134 l-3 -143 -80 -17
c-114 -25 -507 -85 -655 -100 -169 -17 -1042 -17 -1195 0 -391 44 -955 148
-955 175 0 7 14 20 30 29 33 19 44 46 11 28 -11 -5 -22 -10 -24 -10 -6 0 27
124 44 168 10 22 18 31 29 26 8 -3 94 -32 191 -64z m-821 -5 c-14 -8 -32 -14
-40 -14 -8 0 -1 7 15 14 39 18 57 18 25 0z m2111 -80 c41 -15 109 -69 109 -87
0 -10 -338 -9 -363 0 -15 7 -13 12 20 43 21 20 47 41 58 47 29 16 126 14 176
-3z"/>
<path d="M3320 8420 l-65 -7 70 0 c39 0 84 3 100 7 l30 8 -35 -1 c-19 0 -64
-3 -100 -7z"/>
<path d="M3218 8413 c7 -3 16 -2 19 1 4 3 -2 6 -13 5 -11 0 -14 -3 -6 -6z"/>
<path d="M3613 8373 c9 -2 23 -2 30 0 6 3 -1 5 -18 5 -16 0 -22 -2 -12 -5z"/>
<path d="M3508 8363 c12 -2 32 -2 45 0 12 2 2 4 -23 4 -25 0 -35 -2 -22 -4z"/>
<path d="M3398 8353 c12 -2 30 -2 40 0 9 3 -1 5 -23 4 -22 0 -30 -2 -17 -4z"/>
<path d="M3888 8353 c7 -3 16 -2 19 1 4 3 -2 6 -13 5 -11 0 -14 -3 -6 -6z"/>
<path d="M3823 8343 c9 -2 23 -2 30 0 6 3 -1 5 -18 5 -16 0 -22 -2 -12 -5z"/>
<path d="M3615 8319 c-95 -14 -104 -17 -45 -13 84 7 242 32 195 31 -16 0 -84
-8 -150 -18z"/>
<path d="M3413 8293 c15 -2 39 -2 55 0 15 2 2 4 -28 4 -30 0 -43 -2 -27 -4z"/>
<path d="M3788 8253 c7 -3 16 -2 19 1 4 3 -2 6 -13 5 -11 0 -14 -3 -6 -6z"/>
<path d="M3728 8243 c6 -2 18 -2 25 0 6 3 1 5 -13 5 -14 0 -19 -2 -12 -5z"/>
<path d="M3640 8234 c-9 -3 -72 -11 -140 -19 -121 -14 -122 -14 -30 -9 95 5
272 31 215 32 -16 0 -37 -2 -45 -4z"/>
<path d="M3688 8183 c7 -3 16 -2 19 1 4 3 -2 6 -13 5 -11 0 -14 -3 -6 -6z"/>
<path d="M3603 8173 c9 -2 25 -2 35 0 9 3 1 5 -18 5 -19 0 -27 -2 -17 -5z"/>
<path d="M3518 8163 c12 -2 32 -2 45 0 12 2 2 4 -23 4 -25 0 -35 -2 -22 -4z"/>
<path d="M3383 8153 c20 -2 54 -2 75 0 20 2 3 4 -38 4 -41 0 -58 -2 -37 -4z"/>
<path d="M8050 9444 c-30 -20 -88 -66 -128 -103 -41 -36 -90 -81 -110 -98 -29
-25 -10 -18 78 33 63 36 138 83 167 105 29 21 54 35 57 30 4 -5 -14 -21 -38
-35 -24 -14 -75 -54 -113 -88 -37 -35 -86 -78 -108 -97 -39 -33 -39 -33 -5
-12 19 12 70 40 113 63 43 22 100 61 127 85 42 37 50 42 50 25 0 -14 -17 -29
-52 -50 -29 -16 -105 -71 -168 -122 -132 -106 -149 -121 -100 -93 19 12 82 47
140 78 58 31 120 68 139 83 18 14 32 20 30 15 -2 -6 -76 -59 -164 -118 -88
-59 -164 -111 -170 -117 -24 -26 249 129 306 174 20 15 44 28 53 28 9 0 28 11
41 25 48 47 26 179 -36 210 -40 21 -48 19 -109 -21z"/>
<path d="M7865 8640 l-20 -9 20 0 c11 0 27 4 35 9 13 9 13 10 0 9 -8 0 -24 -4
-35 -9z"/>
<path d="M7223 8193 c9 -2 23 -2 30 0 6 3 -1 5 -18 5 -16 0 -22 -2 -12 -5z"/>
<path d="M6840 8170 c19 -11 40 -19 45 -19 6 0 -6 8 -25 19 -19 11 -39 19 -45
19 -5 0 6 -8 25 -19z"/>
<path d="M6620 8145 c14 -8 30 -14 35 -14 6 0 -1 6 -15 14 -14 8 -29 14 -35
14 -5 0 1 -6 15 -14z"/>
<path d="M6643 7728 c-15 -20 -25 -38 -20 -38 3 0 12 11 21 25 17 26 16 35 -1
13z"/>
<path d="M8275 8347 c-27 -27 -103 -94 -167 -149 -65 -55 -118 -102 -118 -105
0 -13 265 184 309 230 19 20 38 34 43 31 18 -11 6 -33 -29 -55 -36 -22 -230
-175 -263 -206 -31 -30 187 111 247 159 34 28 64 50 67 49 16 -3 1 -19 -72
-75 -279 -214 -342 -265 -292 -235 209 125 281 172 330 211 42 34 60 43 64 33
3 -9 -24 -34 -76 -71 -83 -58 -335 -249 -353 -267 -5 -6 1 -4 15 5 14 8 48 28
75 43 78 45 218 140 280 190 35 29 55 40 55 30 0 -8 -42 -42 -92 -76 -107 -71
-258 -178 -273 -192 -12 -11 130 65 190 101 79 49 205 153 210 175 7 28 9 62
7 108 -2 26 -12 47 -40 77 -22 23 -45 41 -53 40 -8 -1 -36 -23 -64 -51z"/>
<path d="M6050 7936 c0 -3 27 -19 60 -36 65 -33 81 -29 26 7 -35 23 -86 40
-86 29z"/>
<path d="M6056 7881 c11 -12 84 -43 84 -36 0 5 -76 45 -87 45 -4 0 -3 -4 3 -9z"/>
<path d="M6183 7828 c5 -38 -7 -135 -18 -146 -2 -2 -34 8 -71 22 -36 15 -68
25 -70 23 -2 -2 24 -16 59 -32 77 -36 74 -34 57 -45 -8 -5 -19 -5 -25 0 -15
13 -146 62 -151 57 -2 -2 29 -19 71 -38 41 -19 74 -37 75 -41 1 -19 -50 -17
-94 2 -61 26 -71 20 -14 -9 32 -16 36 -20 16 -16 -16 3 -28 1 -28 -5 0 -18 59
-40 107 -40 67 0 108 28 138 93 37 78 32 150 -15 197 -32 32 -43 25 -37 -22z"/>
<path d="M6037 7826 c31 -23 136 -69 128 -56 -10 16 -87 58 -120 65 -30 7 -30
7 -8 -9z"/>
<path d="M6094 7739 c32 -17 60 -28 64 -25 5 6 -101 56 -116 56 -4 -1 19 -15
52 -31z"/>
<path d="M5240 7750 c-6 -11 -8 -20 -6 -20 3 0 10 9 16 20 6 11 8 20 6 20 -3
0 -10 -9 -16 -20z"/>
<path d="M6425 6897 c-19 -19 -38 -49 -41 -66 -7 -35 -8 -35 -35 -21 -26 14
-71 -10 -88 -46 -7 -16 -15 -50 -18 -76 -5 -43 -9 -48 -30 -48 -53 0 -92 -37
-93 -87 0 -36 55 -107 91 -118 17 -6 18 -8 4 -35 -22 -43 -19 -65 16 -105 37
-41 95 -63 127 -46 19 10 22 8 27 -22 10 -51 36 -78 81 -84 33 -4 45 -1 72 21
17 15 37 42 43 61 7 19 16 32 21 29 19 -12 88 18 117 51 27 31 31 44 31 90 0
30 4 55 10 55 15 0 40 56 40 89 0 34 -30 61 -67 61 -27 0 -27 0 -8 36 18 34
19 77 4 106 -14 26 -73 50 -104 42 -23 -6 -25 -3 -25 24 0 68 -34 107 -104
119 -31 5 -40 1 -71 -30z m100 -23 c20 -8 45 -56 45 -86 0 -13 -9 -41 -20 -63
-11 -22 -20 -46 -20 -55 0 -13 -9 -15 -47 -10 l-48 5 -9 61 c-7 52 -5 68 12
107 21 48 42 58 87 41z m-161 -116 c9 -12 16 -33 16 -46 0 -13 5 -32 11 -43 8
-17 5 -27 -23 -59 -35 -41 -48 -48 -48 -27 0 8 -9 22 -20 32 -14 13 -20 31
-20 62 0 86 49 132 84 81z m314 -24 c39 -27 20 -113 -36 -152 l-30 -22 -35 39
c-41 45 -40 72 3 120 32 34 64 39 98 15z m-141 -130 c39 -29 63 -72 63 -110 0
-35 -39 -99 -52 -86 -7 7 -5 18 6 33 43 62 -11 139 -98 139 -36 0 -76 -37 -76
-70 0 -87 66 -134 144 -104 11 4 16 1 16 -10 0 -13 -11 -16 -53 -16 -45 0 -57
4 -79 28 -66 68 -63 151 5 200 42 29 82 28 124 -4z m-276 -10 c7 -8 25 -22 41
-30 23 -12 28 -21 28 -53 0 -37 -1 -39 -37 -43 -77 -9 -143 32 -143 88 0 42
83 71 111 38z m494 -45 c4 -5 2 -23 -4 -38 -11 -24 -17 -27 -65 -28 -52 -1
-54 -1 -58 28 -3 20 0 33 11 39 22 13 108 12 116 -1z m-247 -15 c12 -8 22 -26
22 -38 0 -52 -65 -62 -88 -13 -12 25 -12 31 4 48 21 23 33 24 62 3z m175 -101
c23 -5 27 -11 27 -37 0 -40 -21 -70 -59 -86 -39 -16 -61 -7 -61 23 0 13 -5 28
-11 34 -16 16 38 86 60 78 9 -4 28 -9 44 -12z m-289 -100 c-9 -35 -20 -43 -62
-43 -45 0 -97 49 -87 82 10 31 20 40 57 52 31 10 35 9 66 -26 27 -30 32 -41
26 -65z m157 -34 c1 -79 -31 -125 -84 -117 -29 4 -47 43 -47 106 l0 52 38 1
c20 0 46 4 57 9 28 11 36 0 36 -51z"/>
<path d="M7624 6609 c-46 -13 -87 -66 -119 -152 l-28 -77 -36 52 c-20 28 -49
61 -64 72 -36 27 -98 27 -128 1 -36 -33 -69 -114 -69 -172 l0 -53 -51 37 c-55
39 -104 48 -133 24 -8 -7 -28 -37 -43 -67 -23 -47 -25 -57 -16 -88 6 -20 10
-36 10 -36 -1 0 -26 9 -55 20 -78 30 -97 27 -127 -20 -34 -54 -33 -98 6 -146
27 -35 29 -39 12 -42 -45 -7 -103 -35 -117 -57 -9 -13 -16 -40 -16 -60 0 -30
9 -46 50 -89 45 -47 49 -55 35 -66 -24 -20 -45 -65 -45 -98 0 -31 44 -100 82
-126 12 -9 35 -16 50 -16 35 0 35 -7 -2 -58 -42 -59 -41 -104 4 -147 37 -35
79 -48 125 -39 l30 6 -25 -61 c-31 -77 -28 -99 16 -129 31 -21 43 -23 110 -19
41 2 82 8 91 11 15 7 16 0 12 -59 -5 -54 -3 -69 12 -85 42 -47 167 -8 237 73
l27 32 1 -41 c0 -101 41 -164 105 -164 52 0 126 55 146 108 l16 44 18 -29 c10
-15 36 -49 57 -75 33 -40 46 -48 74 -48 28 0 38 6 58 38 24 35 56 136 56 175
0 15 7 13 43 -16 89 -72 164 -100 205 -78 29 15 52 72 52 129 l0 51 43 -24
c56 -33 101 -32 134 1 25 25 25 29 20 117 -2 51 -8 100 -12 110 -6 15 0 17 55
17 128 0 150 47 81 177 -34 64 -36 73 -21 78 9 3 40 33 69 66 42 50 51 68 51
99 0 45 -33 91 -80 110 -36 15 -36 15 -9 43 39 42 59 93 59 156 0 48 -4 64
-21 79 -38 37 -132 43 -172 12 -35 -28 -38 -26 -22 21 38 106 -7 213 -88 213
-24 0 -145 -50 -197 -81 -3 -2 -6 22 -8 53 -6 108 -67 214 -122 214 -48 0
-119 -51 -172 -124 -24 -33 -29 -36 -34 -20 -19 58 -77 163 -106 190 -38 36
-70 45 -114 33z m85 -74 c37 -42 57 -80 82 -153 10 -30 19 -56 19 -56 0 -1
-69 -1 -153 0 l-152 1 3 29 c5 46 81 183 111 199 40 22 56 18 90 -20z m382
-105 c9 -25 20 -79 23 -121 l7 -76 -111 33 c-61 19 -118 34 -126 34 -8 0 -14
3 -14 6 0 26 82 129 124 155 50 31 78 22 97 -31z m-704 -16 c59 -51 93 -102
71 -108 -7 -2 -57 -18 -111 -36 -54 -17 -100 -30 -101 -28 -2 1 -8 25 -15 51
-14 59 1 119 37 148 37 29 59 24 119 -27z m-292 -153 c84 -48 85 -53 20 -98
-31 -21 -63 -42 -71 -48 -11 -7 -20 -4 -35 15 -35 43 -12 161 30 160 3 0 29
-13 56 -29z m1306 2 c15 -18 19 -120 6 -166 l-8 -28 -35 30 c-19 17 -71 49
-115 71 -43 22 -79 42 -79 45 0 2 24 18 53 35 62 35 154 43 178 13z m-1460
-174 c22 -11 39 -24 37 -28 -2 -5 -21 -28 -42 -51 l-39 -43 -43 23 c-44 23
-47 28 -59 88 l-7 32 57 0 c37 0 70 -7 96 -21z m1658 1 c41 -12 51 -24 51 -68
0 -45 -25 -101 -62 -139 l-32 -33 -33 62 c-18 34 -44 73 -58 88 -35 36 -31 56
13 79 42 23 72 25 121 11z m-645 -225 l-76 -126 -88 118 -89 118 117 5 c64 4
138 7 164 8 l47 2 -75 -125z m-324 109 c0 -9 -194 -244 -202 -244 -10 0 -178
223 -172 229 3 3 85 8 182 11 97 4 180 7 185 8 4 1 7 0 7 -4z m534 -124 l96
-109 -32 -5 c-38 -6 -308 -13 -308 -8 0 9 135 232 141 232 3 0 50 -49 103
-110z m-406 -13 l83 -112 -103 -8 c-57 -4 -140 -6 -185 -5 l-81 3 96 118 c53
64 99 117 102 117 3 -1 42 -51 88 -113z m-450 -20 l83 -112 -158 -8 c-87 -4
-168 -6 -180 -5 -21 3 -13 15 70 120 50 64 94 117 97 117 3 0 42 -50 88 -112z
m-468 51 c-11 -24 -20 -58 -20 -75 0 -30 -3 -33 -29 -33 -44 0 -81 37 -88 86
-5 39 -3 42 23 52 16 6 52 11 81 11 l52 1 -19 -42z m1773 -70 c66 -44 86 -99
50 -130 -27 -22 -114 -70 -119 -66 -2 3 0 29 6 58 5 29 10 77 10 106 0 60 7
64 53 32z m-1769 -183 c14 -46 31 -87 36 -90 23 -14 7 -25 -39 -25 -43 0 -51
4 -74 33 -41 54 -40 73 10 127 20 22 38 40 39 40 1 0 14 -38 28 -85z m1415 78
c-1 -10 -541 -524 -545 -520 -4 4 173 498 181 506 4 3 73 9 153 12 81 3 162 6
180 7 17 1 32 -1 31 -5z m-411 -22 c-1 -4 -43 -121 -93 -259 -49 -138 -92
-249 -95 -246 -3 3 -48 116 -101 252 l-97 247 107 6 c182 9 283 9 279 0z
m-413 -43 c60 -149 175 -451 173 -454 -4 -4 -556 470 -552 474 1 2 80 7 176
11 95 5 176 9 179 9 4 1 15 -17 24 -40z m1143 -137 c32 -57 53 -122 46 -143
-5 -17 -15 -19 -85 -17 -69 2 -79 4 -73 18 22 52 54 149 54 164 0 32 35 19 58
-22z m-1580 -184 l27 -29 -24 -19 c-30 -25 -45 -24 -108 5 -78 37 -82 52 -28
122 25 32 45 62 45 68 0 6 14 -18 31 -54 17 -36 42 -78 57 -93z m1450 -119 c3
-115 -6 -136 -51 -125 -20 6 -118 73 -128 88 -6 9 154 148 166 145 6 -2 11
-48 13 -108z m-1271 -56 c65 -45 10 -92 -106 -92 -66 0 -71 1 -77 24 -7 28 -2
45 33 124 l24 55 47 -45 c26 -25 61 -55 79 -66z m1078 -25 c15 -29 16 -40 6
-87 -17 -80 -35 -104 -74 -96 -55 11 -194 115 -170 129 4 2 37 14 73 26 36 12
81 30 100 41 46 25 44 25 65 -13z m-821 -93 c33 -8 33 -14 -6 -51 -39 -37
-132 -83 -169 -83 -52 0 -55 16 -33 176 l6 41 88 -38 c49 -21 100 -41 114 -45z
m542 1 c7 -18 -19 -103 -50 -165 -19 -37 -27 -45 -51 -45 -24 0 -36 12 -86 85
-31 47 -55 88 -53 91 2 4 30 9 63 13 33 4 79 13 103 20 57 19 68 19 74 1z
m-339 -35 c82 0 83 0 83 -25 0 -39 -45 -101 -95 -130 -81 -48 -122 -16 -132
104 l-6 70 34 -9 c19 -6 71 -10 116 -10z"/>
<path d="M6423 5541 c-18 -21 -45 -60 -61 -87 -16 -27 -67 -107 -112 -179
-175 -273 -272 -444 -330 -581 -56 -131 -60 -147 -60 -217 0 -193 135 -340
326 -354 91 -7 144 11 198 66 l38 39 40 -44 c63 -69 125 -94 228 -94 72 0 94
4 137 26 66 32 117 89 156 173 28 58 32 79 35 171 3 95 1 114 -27 200 -38 117
-175 362 -293 522 -48 66 -112 171 -153 252 -38 77 -74 141 -80 143 -5 1 -24
-15 -42 -36z m229 -389 c120 -170 251 -402 284 -500 52 -158 41 -291 -34 -402
-55 -81 -112 -113 -216 -118 -69 -4 -89 -1 -123 17 -52 26 -131 103 -125 121
3 7 -17 -3 -42 -23 -85 -65 -121 -77 -201 -68 -118 14 -204 71 -256 171 -19
35 -24 61 -24 120 0 70 4 84 62 213 76 169 120 246 367 630 31 49 68 111 82
138 l26 48 53 -107 c29 -59 96 -167 147 -240z"/>
<path d="M6438 5253 c-10 -2 -34 -34 -54 -71 -20 -37 -65 -116 -99 -177 -34
-60 -97 -177 -140 -260 -68 -132 -78 -160 -88 -232 -13 -103 -1 -151 48 -189
54 -41 100 -42 174 -4 35 17 85 51 110 75 l47 44 28 -35 c15 -19 52 -51 82
-71 44 -29 63 -36 106 -36 65 -1 131 31 158 76 25 40 27 168 5 240 -16 55 -97
216 -154 310 -20 34 -57 98 -81 142 -60 111 -112 195 -119 194 -3 -1 -14 -3
-23 -6z m92 -870 c0 -5 -16 4 -52 29 -16 11 -28 24 -28 29 0 6 18 -5 40 -22
22 -18 40 -34 40 -36z"/>
<path d="M5375 4582 c-58 -56 -97 -82 -224 -146 -163 -84 -214 -125 -233 -187
-21 -70 33 -116 125 -105 150 17 330 184 378 351 11 39 27 82 35 97 17 32 18
58 2 58 -7 0 -45 -31 -83 -68z m2 -114 c-72 -155 -263 -294 -374 -273 -27 5
-33 11 -33 30 0 45 54 90 195 161 75 38 157 85 183 105 26 20 49 35 51 33 1
-1 -8 -27 -22 -56z"/>
<path d="M5714 4628 c-11 -13 -25 -34 -31 -48 -6 -14 -49 -79 -97 -145 -109
-152 -122 -210 -55 -234 71 -24 141 25 178 124 49 131 68 325 32 325 -4 0 -16
-10 -27 -22z m-19 -204 c-32 -112 -71 -164 -123 -164 -20 0 -22 2 -11 23 19
36 143 207 147 202 2 -2 -4 -30 -13 -61z"/>
<path d="M4150 4620 c-16 -31 -2 -105 25 -130 14 -13 33 -20 47 -18 19 2 24
11 29 48 6 38 3 51 -18 83 -29 42 -65 50 -83 17z m40 -25 c-7 -9 -15 -13 -17
-11 -7 7 7 26 19 26 6 0 6 -6 -2 -15z"/>
<path d="M7143 4613 c-15 -38 -8 -207 10 -259 38 -108 106 -184 167 -184 61 0
120 70 106 126 -4 14 -46 67 -94 117 -48 51 -103 119 -122 151 -38 65 -56 78
-67 49z m112 -188 c83 -99 105 -136 105 -177 0 -36 -2 -38 -30 -38 -75 0 -152
129 -157 265 l-3 80 21 -40 c12 -22 40 -62 64 -90z"/>
<path d="M7440 4572 c5 -9 20 -46 34 -82 41 -107 116 -237 167 -290 112 -116
250 -132 323 -36 21 28 26 44 22 62 -12 45 -96 117 -196 168 -52 27 -126 68
-165 91 -71 43 -146 84 -177 97 -14 6 -16 4 -8 -10z m153 -142 c28 -16 84 -41
122 -55 39 -15 88 -37 111 -50 40 -23 124 -107 124 -123 0 -49 -124 -71 -197
-34 -57 30 -133 117 -182 211 -23 45 -39 81 -36 81 3 0 29 -13 58 -30z"/>
<path d="M8607 4477 c-39 -43 -34 -81 10 -85 40 -4 66 30 61 80 -4 45 -34 47
-71 5z"/>
<path d="M4291 4434 c-50 -64 -1 -143 71 -115 63 24 74 97 18 126 -42 22 -66
19 -89 -11z m83 -29 c3 -8 1 -15 -4 -15 -6 0 -10 7 -10 15 0 8 2 15 4 15 2 0
6 -7 10 -15z"/>
<path d="M4575 4336 c-54 -16 -81 -61 -65 -111 25 -76 107 -99 161 -46 36 36
40 95 9 133 -24 31 -54 38 -105 24z"/>
<path d="M8443 4338 c-32 -41 -14 -112 31 -124 60 -15 106 55 69 104 -23 30
-83 42 -100 20z"/>
<path d="M8224 4260 c-23 -9 -64 -84 -64 -116 0 -40 61 -94 106 -94 9 0 32 16
50 36 40 42 45 87 13 128 -17 22 -70 58 -81 55 -2 0 -13 -4 -24 -9z"/>
<path d="M5800 4176 c0 -24 45 -117 68 -138 63 -60 199 -103 299 -95 70 5 181
52 226 95 25 24 29 25 38 10 15 -26 109 -76 180 -94 86 -22 208 -16 267 15 56
29 110 85 145 152 l29 54 -79 -77 c-43 -42 -98 -86 -123 -97 -89 -40 -233 -22
-363 47 l-69 35 -71 -35 c-83 -41 -166 -68 -213 -68 -41 0 -160 36 -201 62
-18 10 -55 46 -83 79 -27 34 -50 58 -50 55z"/>
<path d="M1236 5349 c-32 -5 -61 -11 -64 -14 -8 -7 159 -6 258 2 84 7 84 7 35
14 -66 9 -156 9 -229 -2z"/>
<path d="M9200 6003 c-52 -9 -88 -24 -110 -48 -32 -34 -16 -31 81 14 80 38 85
43 29 34z"/>
<path d="M4678 3309 c4 -152 -4 -210 -35 -277 -19 -40 -12 -50 21 -29 39 26
69 101 74 186 3 65 -1 90 -28 174 -17 53 -32 97 -33 97 -1 0 0 -68 1 -151z"/>
<path d="M8126 3210 c-55 -122 -53 -247 6 -332 16 -23 72 -47 84 -36 2 3 -11
31 -29 64 l-32 59 0 153 c0 83 -1 152 -1 152 -1 0 -13 -27 -28 -60z"/>
<path d="M5077 2142 c-20 -22 -22 -73 -5 -90 16 -16 63 -15 75 1 6 6 13 25 17
41 13 54 -50 89 -87 48z"/>
<path d="M7607 2042 c-38 -42 -3 -111 47 -93 59 22 57 111 -2 111 -16 0 -36
-8 -45 -18z"/>
<path d="M4680 1787 c-160 -57 -140 -75 25 -23 63 20 115 39 115 41 0 13 -82
2 -140 -18z"/>
<path d="M11660 5094 c58 -8 116 -13 130 -11 34 3 -146 27 -196 26 -21 -1 8
-7 66 -15z"/>
<path d="M9008 2363 c7 -3 16 -2 19 1 4 3 -2 6 -13 5 -11 0 -14 -3 -6 -6z"/>
</g>
</svg>
