<svg id="visual" viewBox="0 0 1920 1080" width="1920" height="1080" xmlns="http://www.w3.org/2000/svg" xmlns:xlink="http://www.w3.org/1999/xlink" version="1.1"><rect x="0" y="0" width="1920" height="1080" fill="#ffffff"></rect><path d="M0 55L29.2 55.8C58.3 56.7 116.7 58.3 174.8 56C233 53.7 291 47.3 349.2 45.2C407.3 43 465.7 45 523.8 49.3C582 53.7 640 60.3 698.2 59.7C756.3 59 814.7 51 872.8 47.3C931 43.7 989 44.3 1047.2 43.8C1105.3 43.3 1163.7 41.7 1221.8 44.3C1280 47 1338 54 1396.2 57.8C1454.3 61.7 1512.7 62.3 1570.8 60.8C1629 59.3 1687 55.7 1745.2 56.5C1803.3 57.3 1861.7 62.7 1890.8 65.3L1920 68L1920 0L1890.8 0C1861.7 0 1803.3 0 1745.2 0C1687 0 1629 0 1570.8 0C1512.7 0 1454.3 0 1396.2 0C1338 0 1280 0 1221.8 0C1163.7 0 1105.3 0 1047.2 0C989 0 931 0 872.8 0C814.7 0 756.3 0 698.2 0C640 0 582 0 523.8 0C465.7 0 407.3 0 349.2 0C291 0 233 0 174.8 0C116.7 0 58.3 0 29.2 0L0 0Z" fill="#181818" stroke-linecap="round" stroke-linejoin="miter"></path></svg>